<?xml version="1.0" encoding="UTF-8" standalone="no"?>
<!-- Created with Inkscape (http://www.inkscape.org/) -->

<svg
   xmlns:dc="http://purl.org/dc/elements/1.1/"
   xmlns:cc="http://creativecommons.org/ns#"
   xmlns:rdf="http://www.w3.org/1999/02/22-rdf-syntax-ns#"
   xmlns:svg="http://www.w3.org/2000/svg"
   xmlns="http://www.w3.org/2000/svg"
   xmlns:sodipodi="http://sodipodi.sourceforge.net/DTD/sodipodi-0.dtd"
   xmlns:inkscape="http://www.inkscape.org/namespaces/inkscape"
   id="svg3975"
   version="1.1"
   inkscape:version="0.48.4 r9939"
   width="460.85125"
   height="460.85125"
   xml:space="preserve"
   sodipodi:docname="themostamazingbearforwebFixed.svg"><metadata
     id="metadata3981"><rdf:RDF><cc:Work
         rdf:about=""><dc:format>image/svg+xml</dc:format><dc:type
           rdf:resource="http://purl.org/dc/dcmitype/StillImage" /><dc:title></dc:title></cc:Work></rdf:RDF></metadata><defs
     id="defs3979"><clipPath
       clipPathUnits="userSpaceOnUse"
       id="clipPath3989"><path
         d="m 0,368.681 368.681,0 L 368.681,0 0,0 0,368.681 z"
         id="path3991" /></clipPath><clipPath
       clipPathUnits="userSpaceOnUse"
       id="clipPath4565"><path
         d="m 0,368.681 368.681,0 L 368.681,0 0,0 0,368.681 z"
         id="path4567" /></clipPath></defs><sodipodi:namedview
     pagecolor="#ffffff"
     bordercolor="#666666"
     borderopacity="1"
     objecttolerance="10"
     gridtolerance="10"
     guidetolerance="10"
     inkscape:pageopacity="0"
     inkscape:pageshadow="2"
     inkscape:window-width="1267"
     inkscape:window-height="696"
     id="namedview3977"
     showgrid="false"
     inkscape:zoom="1.0393809"
     inkscape:cx="119.78284"
     inkscape:cy="230.42563"
     inkscape:window-x="0"
     inkscape:window-y="0"
     inkscape:window-maximized="0"
     inkscape:current-layer="layer4" /><g
     id="g3983"
     inkscape:groupmode="layer"
     inkscape:label="FlameLayer"
     transform="matrix(1.25,0,0,-1.25,0,460.85125)"
     style="display:inline"><path
       d="m 57.54875,228.979 c -2.37,-18.003 -3.257,-39.53 6.637,-55.539 3.293,-5.33 7.846,-7.1 13.792,-5.148 5.506,1.808 8.632,6.446 11.151,11.397 8.203,16.121 9.818,34.665 11.555,52.343 1.095,11.146 0.855,21.926 0.316,33.103 -0.542,11.223 -0.868,22.814 2.889,33.564 0.5,1.432 -6.936,0.586 -7.619,-1.37 -5.957,-17.04 -0.995,-37.9 4.521,-54.389 2.633,-7.871 5.96,-17.105 12.211,-22.847 5.63,-5.17 15.285,-2.838 20.784,1.292 8.569,6.435 10.723,16.737 11.829,26.84 1.458,13.32 1.433,26.724 0.308,40.06 -1.146,13.588 -2.954,27.098 -2.646,40.764 0.247,10.995 2.8,21.817 0,32.667 -0.464,1.794 -7.486,-0.292 -7.728,-2.07 -3.513,-25.805 3.518,-51.589 9.893,-76.387 3.003,-11.68 4.912,-23.36 6.654,-35.284 1.68,-11.496 3.697,-23.118 8.786,-33.663 0.659,-1.364 4.273,-0.177 5.196,0.175 16.047,6.111 19.814,27.911 22.492,42.728 1.492,8.26 2.464,16.614 3.191,24.972 0.481,5.528 -0.365,10.287 -1.922,15.603 -1.661,5.666 -3.931,11.87 -1.283,17.576 -2.558,-0.574 -5.116,-1.147 -7.674,-1.72 4.643,-16.6 7.068,-33.944 4.619,-51.103 -0.939,-6.574 -1.93,-13.136 -2.194,-19.78 -0.202,-5.075 -0.237,-11.666 3.798,-15.394 1.427,-1.319 6.573,0.549 7.451,1.997 3.486,5.75 10.404,10.212 12.666,16.667 -2.557,-0.574 -5.115,-1.147 -7.673,-1.721 2.62,-7.4 0.054,-16.677 -0.911,-24.188 -0.799,-6.228 -2.738,-15.863 2.466,-20.755 1.481,-1.391 5.896,0.65 7.137,1.611 11.771,9.112 14.519,25.704 16.454,39.536 2.124,15.174 1.534,31.565 6.527,46.183 -2.557,-0.573 -5.115,-1.147 -7.673,-1.72 1.608,-5.024 1.163,-10.556 0.745,-15.731 -0.606,-7.505 -1.786,-14.96 -2.662,-22.436 -1.35,-11.528 -4.006,-28.085 4.806,-37.443 1.358,-1.441 5.978,0.699 7.137,1.611 11.06,8.69 15.976,23.7 17.912,37.12 2.693,18.67 -5.694,37.175 -10.211,54.949 -2.575,-0.69 -5.151,-1.38 -7.727,-2.07 12.479,-18.23 14.825,-40.829 16.441,-62.286 0.787,-10.448 1.423,-20.882 2.7,-31.284 1.026,-8.353 1.745,-17.966 9.081,-23.373 1.652,-1.217 5.821,0.471 7.137,1.611 10.641,9.22 12.39,23.354 20.314,34.386 -2.557,-0.574 -5.115,-1.147 -7.673,-1.721 3.551,-12.25 4.714,-24.983 5.892,-37.635 1.08,-11.607 1.453,-24.46 5.641,-35.461 2.143,-5.631 9.28,-4.373 12.702,-0.437 4.867,5.597 6.421,14.939 8.105,21.92 -2.557,-0.573 -5.115,-1.147 -7.673,-1.72 7.539,-26.681 3.366,-55.993 -8.465,-80.794 -10.442,-21.887 -25.689,-43.185 -46.711,-55.85 -13.075,-7.876 -28.658,-12.838 -43.66,-15.237 -15.471,-2.474 -31.414,-0.11 -46.411,3.921 -28.174,7.571 -52.427,23.387 -70.337,46.357 -17.474,22.41 -27.632,47.855 -30.482,76.058 -1.491,14.754 -2.018,29.602 -1.096,44.406 0.497,7.971 1.358,15.917 2.141,23.864 0.363,3.689 0.701,7.379 1.006,11.073 0.323,3.899 0,8.138 1.021,11.922 0.432,1.6 -7.099,0.555 -7.619,-1.37 -1.547,-5.734 -1.077,-12.269 -1.61,-18.177 -0.717,-7.953 -1.592,-15.889 -2.257,-23.847 -1.26,-15.077 -0.905,-30.017 0.258,-45.086 1.019,-13.21 3.135,-26.264 7.415,-38.833 4.481,-13.158 11.609,-25.422 19.564,-36.763 15.665,-22.333 36.701,-38.699 62.292,-48.225 27.311,-10.167 55.417,-12.115 83.459,-3.813 15.577,4.611 30.652,11.244 43.463,21.338 11.637,9.169 20.598,21.284 28.306,33.807 17.8,28.923 26.909,63.842 17.45,97.319 -0.477,1.687 -7.313,-0.231 -7.673,-1.72 -1.545,-6.404 -3.225,-12.933 -6.139,-18.871 -0.477,-0.973 -1.043,-1.939 -1.756,-2.759 4.094,-0.283 5.363,0.125 3.806,1.222 -0.659,0.54 -1.036,1.62 -1.372,2.366 -1.786,3.954 -2.294,8.638 -3.025,12.876 -3.456,20.005 -2.818,40.59 -8.508,60.22 -0.588,2.03 -6.897,-0.641 -7.673,-1.72 -7.709,-10.732 -9.354,-24.663 -19.685,-33.615 2.379,0.537 4.757,1.074 7.136,1.611 -7.394,5.451 -7.76,15.694 -8.787,24.046 -1.292,10.515 -1.874,21.085 -2.67,31.645 -1.576,20.936 -4.166,42.943 -16.321,60.699 -1.034,1.512 -8.177,-0.301 -7.727,-2.07 4.208,-16.564 11.765,-33.673 10.625,-51.031 -0.912,-13.879 -6.278,-30.679 -17.589,-39.567 2.379,0.537 4.757,1.074 7.136,1.611 -8.495,9.021 -5.612,25.857 -4.361,36.891 0.808,7.123 1.881,14.214 2.564,21.351 0.527,5.487 1.061,11.478 -0.648,16.815 -0.562,1.758 -7.184,-0.288 -7.673,-1.72 -4.66,-13.644 -4.46,-28.954 -6.153,-43.144 -1.691,-14.168 -4.076,-32.42 -16.199,-41.804 2.379,0.537 4.757,1.074 7.136,1.611 -5.076,4.772 -2.631,15.448 -1.866,21.414 0.922,7.177 3.258,15.907 0.755,22.977 -0.623,1.761 -7.168,-0.279 -7.673,-1.72 -2.271,-6.48 -9.161,-10.885 -12.666,-16.667 2.484,0.665 4.967,1.331 7.451,1.996 -3.768,3.483 -3.463,10.169 -3.354,14.841 0.155,6.63 1.245,13.23 2.194,19.781 2.483,17.141 0.019,34.521 -4.618,51.102 -0.517,1.848 -7.066,-0.412 -7.673,-1.72 -4.328,-9.325 2.846,-19.662 3.404,-29.132 0.427,-7.25 -1.297,-15.285 -2.326,-22.433 -1.33,-9.25 -3.214,-18.475 -6.197,-27.342 -2.062,-6.128 -5.697,-16.327 -12.403,-18.881 1.732,0.059 3.463,0.117 5.195,0.175 -5.096,10.558 -7.073,22.161 -8.787,33.663 -1.776,11.922 -3.652,23.598 -6.653,35.284 -6.37,24.802 -13.407,50.578 -9.893,76.386 -2.576,-0.69 -5.152,-1.381 -7.728,-2.07 2.241,-8.683 0.989,-16.903 0.271,-25.682 -0.931,-11.367 -0.008,-22.842 1.073,-34.162 1.111,-11.633 2.383,-23.236 2.158,-34.941 -0.211,-11.041 -0.67,-22.743 -4.182,-33.276 -1.442,-4.324 -4.758,-9.017 -8.835,-11.202 -3.505,-1.878 -8.758,5.561 -9.974,7.58 -4.154,6.902 -6.919,14.675 -9.224,22.356 -4.44,14.792 -8.206,33.335 -2.947,48.38 -2.54,-0.456 -5.08,-0.913 -7.619,-1.37 -6.109,-17.478 -2.13,-36.568 -2.305,-54.619 -0.103,-10.511 -1.674,-21.289 -3.071,-31.696 -1.025,-7.637 -2.777,-15.053 -5.202,-22.355 -1.833,-5.519 -4.057,-11.092 -7.467,-15.84 -0.656,-0.913 -1.447,-1.696 -2.287,-2.435 -1.179,-0.727 -0.666,-0.667 1.537,0.178 -0.744,0.107 -1.364,0.544 -1.975,0.941 -3.116,2.02 -5.019,6.163 -6.547,9.406 -6.989,14.837 -5.758,34.323 -3.676,50.14 0.121,0.921 -7.42,0.265 -7.728,-2.07"
       style="fill:#ee3338;fill-opacity:1;fill-rule:nonzero;stroke:none;display:inline"
       id="path4583"
       inkscape:connector-curvature="0" /></g><g
     inkscape:groupmode="layer"
     id="layer3"
     inkscape:label="BearHeadLayer"
     style="display:inline"><g
       style="display:inline"
       id="g4561"
       transform="matrix(1.25,0,0,-1.25,7.4615486,460.85125)"><g
         id="g4563"
         clip-path="url(#clipPath4565)"><g
           id="g4569"
           transform="translate(107.667,141.124)"><path
             d="M 0,0 C 0,0 -7.735,-29.504 -4.751,-41.438 -1.333,-55.11 30,-95.776 76,-95.776 c 40.667,0 69.833,43.666 71.333,48 4.914,14.196 2.333,40.864 -2,43.182 5.667,0.318 21.499,20.161 1.667,35.818 -19,15 -39,1.416 -38.5,-4 7.413,2.337 -61.167,12.333 -79,-2.5 C 21,40.03 1.105,38.445 -7.504,29.333 -18,18.224 -20,3.224 0,0"
             style="fill:#373535;fill-opacity:1;fill-rule:nonzero;stroke:none"
             id="path4571"
             inkscape:connector-curvature="0" /></g><g
           id="g4581"
           transform="translate(54.8032,228.979)" /></g><g
         clip-path="url(#clipPath4565)"
         id="g3346"><g
           transform="translate(107.667,141.124)"
           id="g3348"
           style="fill:#000000"><path
             inkscape:connector-curvature="0"
             id="path3350"
             style="fill:#000000;fill-opacity:1;fill-rule:nonzero;stroke:none"
             d="M 0,0 C 0,0 -7.735,-29.504 -4.751,-41.438 -1.333,-55.11 30,-95.776 76,-95.776 c 40.667,0 69.833,43.666 71.333,48 4.914,14.196 2.333,40.864 -2,43.182 5.667,0.318 21.499,20.161 1.667,35.818 -19,15 -39,1.416 -38.5,-4 7.413,2.337 -61.167,12.333 -79,-2.5 C 21,40.03 1.105,38.445 -7.504,29.333 -18,18.224 -20,3.224 0,0" /></g><g
           transform="translate(153.5479,119.3643)"
           id="g3352" /><g
           transform="translate(54.8032,228.979)"
           id="g3360" /></g></g></g><g
     inkscape:groupmode="layer"
     id="layer4"
     inkscape:label="EyeLayer"
     style="display:inline"><g
       style="display:inline"
       id="g4573"
       transform="matrix(1.25,0,0,-1.25,199.39642,311.64587)"><path
         d="M 0,0 C 0,0 -12.881,18.292 -16.782,9.479 -24.004,-6.834 0,0 0,0"
         style="fill:#ee3338;fill-opacity:1;fill-rule:nonzero;stroke:none"
         id="path4575"
         inkscape:connector-curvature="0" /></g><g
       style="display:inline"
       id="g4577"
       transform="matrix(1.25,0,0,-1.25,266.7718,311.64587)"><path
         d="M 0,0 C 0,0 12.881,18.292 16.783,9.479 24.004,-6.834 0,0 0,0"
         style="fill:#ee3338;fill-opacity:1;fill-rule:nonzero;stroke:none"
         id="path4579"
         inkscape:connector-curvature="0" /></g></g></svg>