<?xml version="1.0" encoding="UTF-8"?>
<svg width="595.28pt" version="1.1" xmlns="http://www.w3.org/2000/svg" height="841.89pt" viewBox="0 0 595.28 841.89" xmlns:xlink="http://www.w3.org/1999/xlink">
 <defs>
  <clipPath id="Clip0">
   <path d="M0 0 L0 220.663 L244.622 220.663 L244.622 0 L0 0 Z" transform="translate(83.3083, 99.0602)"/>
  </clipPath>
 </defs>
 <g id="Background">
  <g id="Group1" clip-path="url(#Clip0)">
   <path style="fill:#005ca8; fill-rule:nonzero;stroke:none;" d="M24.379 63.8037 L62.945 23.8779 L102.897 62.4941 L64.331 102.42 L24.379 63.8037 Z M62.142 0 L0 64.3984 L64.924 127.147 L127.101 62.668 L62.142 0 Z" transform="translate(200.829, 133.086)"/>
   <path style="fill:#b0b2b4; fill-rule:nonzero;stroke:none;" d="M131.638 0 L127.092 11.0227 L64.925 75.4357 L0 12.6857 L4.517 1.7363 L69.439 64.4827 L131.638 0 Z" transform="translate(196.292, 195.754)"/>
   <path style="fill:#b0b2b4; fill-rule:nonzero;stroke:none;" d="M3.397 43.2202 L34.337 11.1689 L70.923 46.5042 L78.534 38.6338 L38.584 0 L0 39.9482 L3.397 43.2202 Z" transform="translate(225.208, 156.941)"/>
   <path style="fill:#e20010; fill-rule:nonzero;stroke:none;" d="M68.7265 33.8701 L99.8534 89.0634 L31.7168 109.511 L68.7265 33.8701 Z M67.288 0 L0 137.528 L123.883 100.353 L67.288 0 Z" transform="translate(94.0349, 103.008)"/>
   <path style="fill:#b0b2b4; fill-rule:nonzero;stroke:none;" d="M10.7373 141.426 L78.0254 3.89844 L66.9902 0 L0 136.624 L10.7373 141.426 Z" transform="translate(83.3083, 99.0602)"/>
   <path style="fill:#b0b2b4; fill-rule:nonzero;stroke:none;" d="M2.8574 69.8335 L0 75.6915 L68.1366 55.2441 L37.0205 0 L34.6504 4.8476 L35.0009 5.4629 L61.3966 52.2656 L3.5293 69.6305 L2.8574 69.8335 Z" transform="translate(125.752, 136.828)"/>
   <path style="fill:#b0b2b4; fill-rule:nonzero;stroke:none;" d="M23.4971 9.6905 C11.8789 14.834 3.5078 23.5733 1.2998 33.6731 L1.0625 32.8001 C0.6426 31.1031 0.3994 29.3581 0.3428 27.5762 C0 16.5117 7.001 6.4678 18.0849 0 L23.4971 9.6905 Z" transform="translate(158.767, 170.726)"/>
   <path style="fill:#ffffff; fill-rule:nonzero;stroke:none;" d="M29.7491 8.2607 C11.7813 17.0312 0 32.1924 0.5245 49.0086 C1.3243 74.7626 30.4707 94.7526 65.6252 93.6586 C100.781 92.5626 128.627 70.7996 127.826 45.0469 C127.524 35.3486 123.316 26.5693 116.166 19.3242 L105.514 30.3584 C108.271 34.5058 109.797 39.0429 109.952 43.9941 C110.529 62.5356 90.4802 78.2056 65.1682 78.9926 C39.8584 79.7786 18.8731 65.3866 18.295 46.8447 C17.9522 35.7929 24.9366 25.7617 35.9961 19.2929 L29.7491 8.2607 Z M54.9492 12.6289 C57.5872 12.1982 60.2942 11.9336 63.0802 11.8457 C72.3362 11.5586 81.1102 13.3418 88.4232 16.5771 L97.7652 6.8945 C87.6202 2.4209 75.5542 0 62.7232 0.3994 C57.9762 0.5478 53.3612 1.0732 48.9322 1.9355 L54.9492 12.6289 Z" transform="translate(140.815, 151.458)"/>
   <path style="fill:#b0b2b4; fill-rule:nonzero;stroke:none;" d="M5.403 0 C8.125 4.1299 9.713 8.7539 9.866 13.6709 C9.921 15.457 9.786 17.2184 9.471 18.9414 L9.292 19.7814 C7.768 14.461 4.52 9.6436 0 5.6387 L5.403 0 Z" transform="translate(240.901, 181.781)"/>
   <path style="fill:#b0b2b4; fill-rule:nonzero;stroke:none;" d="M6.441 12.6299 C7.128 12.584 7.82 12.5527 8.517 12.5302 C14.127 12.3564 19.626 12.9853 24.636 14.1845 L33.474 5.0185 C26.14 1.7578 17.426 0 8.131 0.2871 C5.352 0.374 2.634 0.6406 0 1.0703 L6.441 12.6299 Z" transform="translate(195.764, 163.016)"/>
   <path style="fill:#b0b2b4; fill-rule:nonzero;stroke:none;" d="M127.302 0 C128.103 25.7527 100.257 47.5157 65.1007 48.6117 C29.9462 49.7057 0.7998 29.7157 0 3.9617 L0.4082 16.9507 C1.2089 42.7037 30.3554 62.6927 65.5107 61.5997 C100.661 60.5047 128.511 38.7407 127.71 12.9877 L127.302 0 Z" transform="translate(141.34, 196.505)"/>
   <path style="fill:#161413; fill-rule:nonzero;stroke:none;" d="M7.9804 0 L36.529 0 L34.452 9.777 L20.7753 9.777 L19.9248 13.779 L33.561 13.779 L31.468 23.556 L17.8457 23.556 L14.872 37.543 L0 37.543 L7.9804 0 Z" transform="translate(153.935, 281.091)"/>
   <path style="fill:#161413; fill-rule:nonzero;stroke:none;" d="M7.981 0 L22.853 0 L14.871 37.543 L0 37.543 L7.981 0 Z" transform="translate(185.858, 281.091)"/>
   <path style="fill:#161413; fill-rule:nonzero;stroke:none;" d="M0 37.543 L14.56 37.543 L17.4 24.179 L19.115 24.179 C21.509 24.179 22.288 24.909 22.203 26.78 C22.038 30.005 21.5 34.736 21.787 37.543 L36.348 37.543 C35.837 31.876 37.069 26.573 36.921 23.348 C36.801 20.487 35.168 18.876 31.595 18.562 L31.615 18.462 C37.52 17.108 40.036 13.833 40.953 9.517 C42.456 2.445 38.244 0 30.184 0 L7.98 0 L0 37.543 Z M19.213 15.653 L20.728 8.528 L22.078 8.528 C24.991 8.528 26.795 9.099 26.207 11.857 C25.612 14.664 23.32 15.653 20.461 15.653 L19.213 15.653 Z" transform="translate(205.117, 281.091)"/>
   <path style="fill:#161413; fill-rule:nonzero;stroke:none;" d="M3.841 0.576 C2.039 0.576 0.578 2.037 0.578 3.84 C0.578 5.642 2.039 7.103 3.841 7.103 C5.643 7.103 7.105 5.642 7.105 3.84 C7.105 2.037 5.643 0.576 3.841 0.576 Z M7.682 3.84 C7.682 5.961 5.96 7.679 3.841 7.679 C1.722 7.679 0 5.961 0 3.84 C0 1.719 1.722 0 3.841 0 C5.96 0 7.682 1.719 7.682 3.84 Z" transform="translate(302.772, 311.487)"/>
   <path style="fill:#161413; fill-rule:nonzero;stroke:none;" d="M0.56 1.772 L1.504 1.772 C2.137 1.744 2.279 1.457 2.279 1.132 C2.279 0.806 2.137 0.52 1.504 0.492 L0.56 0.492 L0.56 1.772 Z M0.571 2.264 L0.571 4.128 L0 4.128 L0 0 L1.474 0 C2.166 0 2.881 0.217 2.881 1.034 C2.881 1.531 2.584 1.914 2.102 2.029 L2.102 2.041 C2.6 2.16 2.668 2.424 2.732 2.887 C2.794 3.299 2.841 3.738 2.989 4.128 L2.378 4.128 C2.324 3.882 2.258 3.613 2.23 3.367 C2.183 2.996 2.183 2.657 1.993 2.452 C1.828 2.264 1.601 2.281 1.371 2.264 L0.571 2.264 Z" transform="translate(305.289, 313.274)"/>
   <path style="fill:#161413; fill-rule:nonzero;stroke:none;" d="M39.73 11.637 L39.84 9.189 C40.219 2.149 34.177 0 25.744 0 C14.773 0 7.541 4.421 5.882 12.222 C4.854 17.059 6.142 20.541 11.549 22.258 L21.441 25.378 C22.759 25.794 23.694 26.522 23.398 27.926 C23.043 29.589 21.34 30.995 19.156 30.995 C17.754 30.995 16.914 30.527 16.499 29.797 C16.092 29.016 16.107 27.978 16.327 26.938 L2.079 26.938 C0 36.713 7.724 39.52 16.773 39.52 C27.38 39.52 35.688 35.673 37.643 26.471 C38.603 21.947 37.243 18.565 32.932 16.588 C29.477 14.976 24.446 13.938 21.763 13.105 C20.302 12.637 19.541 12.065 19.826 10.715 C20.072 9.569 21.331 8.528 23.722 8.528 C25.647 8.528 26.783 9.31 26.336 11.649 " transform="translate(241.034, 280.203)"/>
   <path style="fill:#161413; fill-rule:nonzero;stroke:none;" d="M0 10.667 L0.026 10.665 L9.193 10.659 L3.543 37.561 L18.471 37.576 L24.212 10.653 L33.399 10.653 L35.883 0 L2.31 0.014 L0 10.667 Z" transform="translate(281.157, 281.372)"/>
  </g>
 </g>
</svg>
