<?xml version="1.0" encoding="UTF-8"?>
<svg width="595.28pt" version="1.1" xmlns="http://www.w3.org/2000/svg" height="841.89pt" viewBox="0 0 595.28 841.89" xmlns:xlink="http://www.w3.org/1999/xlink">
 <defs>
  <clipPath id="Clip0">
   <path d="M0 0 L0 106.503 L335.304 106.503 L335.304 0 L0 0 Z" transform="translate(127.25, 112.75)"/>
  </clipPath>
 </defs>
 <g id="Background">
  <g id="Group1" clip-path="url(#Clip0)">
   <path style="fill:#f02b27; fill-rule:nonzero;stroke:none;" d="M205.539 29.7969 C205.547 29.5518 205.437 29.2364 205.223 29.0674 C205.005 28.8926 204.766 28.8584 204.537 28.8555 L203.345 28.8555 L194.166 49.6573 L191.777 38.5137 C191.636 37.5362 190.852 36.8692 189.921 36.9209 L188.378 36.9209 L181.133 49.5372 L181.204 29.8565 C181.21 29.5938 181.107 29.2705 180.875 29.0879 C180.649 28.9024 180.396 28.8584 180.143 28.8555 L178.597 28.8555 L178.597 52.501 L180.568 52.501 L180.568 52.4981 C180.58 52.4981 180.596 52.501 180.612 52.501 C181.189 52.5059 181.714 52.3623 182.144 52.0498 C182.533 51.7705 182.869 51.3829 183.163 50.9161 L189.506 39.5977 L192.15 52.501 C192.15 52.501 193.755 52.501 193.794 52.501 C193.81 52.501 193.83 52.501 193.843 52.501 C194.922 52.501 195.825 51.8721 196.298 50.8018 L205.416 30.2891 C205.483 30.1221 205.535 30.0108 205.539 29.7969 Z M288.686 28.8584 L278.927 28.8584 C274.371 28.8692 273.889 32.6104 273.869 34.377 C273.868 36.2325 275.217 37.7129 275.888 38.3096 L282.533 44.8174 C283.321 45.5918 283.705 46.5059 283.705 47.3584 C283.705 48.7969 282.604 49.9756 280.827 49.9678 C280.822 49.9776 272.226 49.9805 272.146 50.0039 C271.866 50.0557 271.57 50.4258 271.575 50.7207 L271.549 50.7207 L271.575 50.7305 C271.575 50.7413 271.577 52.167 271.577 52.5059 L281.234 52.5059 C285.791 52.4903 286.274 48.753 286.296 46.9913 C286.296 46.9834 286.292 46.9805 286.292 46.9756 C286.297 44.5313 284.048 42.6416 284.034 42.6358 L277.734 36.4366 C276.947 35.6622 276.461 34.8643 276.457 34.0069 C276.461 32.5606 277.561 31.3907 279.333 31.3907 C279.344 31.3858 288.038 31.378 288.113 31.3565 L288.132 31.4219 L288.115 31.3565 C288.398 31.3047 288.699 30.9336 288.69 30.6407 C288.69 30.6407 288.686 30.6358 288.69 30.6309 C288.69 30.6172 288.686 29.1944 288.686 28.8584 Z M219.05 31.2276 C214.713 30.9903 209.756 33.542 208.053 40.4375 C206.376 47.1934 209.512 50.4747 213.762 51.0215 L214.205 51.042 C218.59 51.2745 223.258 48.7178 224.901 41.8243 C226.504 35.0635 223.361 31.668 219.05 31.2276 Z M227.434 42.0303 C225.839 48.7491 220.998 54.0528 213.265 53.458 L213.265 53.4532 C206.071 52.6221 204.01 46.294 205.53 40.2295 C207.204 33.5137 212.03 28.21 219.649 28.8008 L219.649 28.8067 C226.748 29.6348 228.871 35.9707 227.434 42.0303 Z M270.489 29.083 C270.288 28.9317 270.066 28.9024 269.839 28.9004 L268.685 28.9004 L256.517 39.3077 L258.137 30.1123 C258.237 29.6016 257.991 29.2549 257.782 29.1084 C257.567 28.9414 257.301 28.8584 257.04 28.8584 L255.869 28.8584 L251.474 52.501 L254.076 52.501 L256 42.0372 L265.635 52.5059 L266.79 52.5059 C267.019 52.501 267.239 52.4688 267.434 52.3204 C267.637 52.1797 267.742 51.9014 267.736 51.6748 C267.736 51.25 267.389 50.8223 267.389 50.8223 L258.273 40.9161 L270.444 30.5782 C270.444 30.5782 270.786 30.2862 270.786 29.7237 C270.79 29.5 270.689 29.2286 270.489 29.083 Z M246.058 32.4463 C245.581 31.9844 244.858 31.7657 243.736 31.5547 C243.442 31.5 242.962 31.4561 242.414 31.4297 C241.061 31.3545 237.04 31.4141 235.808 31.4268 L234.25 40.0274 C235.174 40.0401 236.238 40.0538 236.983 40.0586 C239.086 40.0586 241.121 39.9913 242.563 39.5977 C246.264 38.5918 248.099 34.3926 246.058 32.4463 Z M248.448 31.0196 C249.5 32.2139 249.578 34.4375 249.28 35.8028 C248.914 37.4737 247.325 41.6924 241.367 42.2266 L246.384 50.8223 C246.384 50.8223 246.728 51.3379 246.728 51.6748 C246.733 51.9014 246.631 52.1797 246.428 52.3204 C246.227 52.4688 246.011 52.5059 245.786 52.5059 L244.46 52.5059 L238.576 42.3653 L233.835 42.3448 L231.996 52.5059 L229.394 52.5059 L233.793 28.8584 L239.867 28.8584 C243.457 28.8584 246.608 28.9102 248.448 31.0196 Z M73.5977 33.9082 C73.2998 35.8106 73.8858 38.0469 76.0069 39.5293 L83.5651 44.8047 C84.3581 45.3516 84.7501 45.7276 84.6541 46.3682 C84.5121 47.2491 84.0501 47.6084 82.4831 47.6084 L73.6934 47.6084 C72.7539 47.6084 72.2412 48.0674 72.0703 49.128 L72.0703 52.4043 L82.3691 52.4043 C86.8821 52.4043 89.1151 49.7432 89.5641 46.9131 C89.9861 44.2549 89.0921 42.3545 87.3751 41.1299 L79.3431 35.4278 C78.6981 34.9639 78.5371 34.7237 78.5811 34.377 C78.6541 33.7959 79.1811 33.5567 80.0961 33.5567 L89.2741 33.5567 C90.3971 33.5567 91.0361 32.4122 91.2151 31.2735 L91.2151 28.7569 L79.0771 28.7569 C76.3858 28.7569 74.0332 31.1641 73.5977 33.9082 Z M165.081 28.7539 L152.356 28.7539 L152.289 29.1348 C151.994 30.7403 152.126 32.5997 154.664 32.5997 L164.091 32.5997 C167.827 32.5997 169.254 35.2998 168.33 40.3692 C167.481 45.0108 164.98 48.5577 161.178 48.5577 L156.067 48.5577 L158.494 35.2559 L154.146 35.2559 C153.563 35.2559 153.159 35.6807 153.089 36.0606 L150.108 52.4014 L160.076 52.4014 C167.438 52.4014 172.567 48.9375 174.159 40.1973 C175.386 33.4834 172.59 28.7539 165.081 28.7539 Z M134.865 48.5596 L124.819 48.5596 L128.29 29.5596 C128.356 29.1788 128.073 28.7569 127.6 28.7569 L123.177 28.7569 L118.861 52.4014 L135.505 52.4014 L135.936 50.0381 C136.128 48.9795 135.773 48.5596 134.865 48.5596 Z M147.387 28.7539 L142.964 28.7539 L138.647 52.4014 L143.905 52.4014 L148.077 29.5567 C148.146 29.1768 147.862 28.7539 147.387 28.7539 Z M106.496 32.8086 C101.7 32.8086 99.1871 35.5957 98.2881 41.084 C97.3851 46.5782 98.9831 49.3614 103.78 49.3614 C108.575 49.3614 111.085 46.5782 111.988 41.084 C112.89 35.5957 111.293 32.8086 106.496 32.8086 Z M117.208 41.084 C116.105 47.7979 111.562 53.417 103.114 53.417 C94.6631 53.417 91.9651 47.7979 93.0661 41.084 C94.1681 34.3711 98.7151 28.7569 107.163 28.7569 C115.612 28.7569 118.311 34.3711 117.208 41.084 Z M55.7774 20.5186 C50.7559 19.6954 41.7705 19.375 38.7002 24.0811 C36.3281 27.7198 40.8115 32.6993 44.8945 37.5254 C48.1651 41.3907 51.7276 45.083 50.2735 47.2413 C49.086 49.003 41.4776 49 38.8565 49.1387 C35.6699 49.3077 31.0879 49.3184 30.2871 49.7539 C29.5684 50.1397 29.167 51.3409 31.8623 51.8233 C34.0244 52.211 39.1777 53.001 44.6152 52.9961 C50.2881 52.9961 56.251 52.0655 57.544 47.6709 C58.582 44.1426 54.9805 40.3614 51.8125 36.5245 C48.3457 32.3262 44.833 29.3301 45.1289 26.3565 C45.3565 24.045 49.8926 23.9122 57.4209 23.7793 C58.9873 23.75 62.1055 23.6748 61.5039 22.4395 C60.9688 21.3477 58.6377 20.9854 55.7774 20.5186 Z M32.6192 30.9932 C29.3965 28.7832 23.6524 28.043 18.9238 28.2881 C14.7149 28.5118 7.4746 29.8487 7.7481 31.1817 C8.0029 32.6211 12.5869 32.1748 14.6865 32.1748 C19.3027 32.1748 26.6319 32.459 27.7861 35.4327 C30.2754 41.8438 13.3965 53.3526 9.7959 52.2481 C8.169 51.75 13.1026 43.3838 14.8945 40.3741 C15.959 38.5782 17.5811 35.7559 16.1963 35.5655 C14.6494 35.3516 12.9463 38.0079 11.8399 39.5401 C8.8369 43.7022 5.7598 48.2442 3.294 52.9122 C2.5313 54.3536 0 58.6924 0.8692 59.253 C1.6797 59.7745 5.5401 59.0342 10.4492 57.087 C25.8877 50.9737 32.8369 43.0118 34.6983 36.4307 C35.3506 34.1143 34.2236 32.0918 32.6192 30.9932 Z M21.1582 2.8877 C20.8399 1.8516 25.9883 0.501 31.6358 0.251 C37.3242 0 44.0557 1.1329 45.3096 4.8868 C47.3652 11.0372 36.9483 20.0049 27.8721 24.4102 C25.6445 25.4883 24.2959 25.7862 23.7324 25.71 C23.1983 25.6397 23.1152 25.1397 23.2901 24.7959 C23.6113 24.1495 25.0772 22.8301 27.0361 21.3995 C37.2539 13.9356 40.5772 8.4629 38.6455 6.2432 C37.4082 4.8213 32.2285 3.834 26.8506 3.834 C25.3897 3.834 21.5527 4.1524 21.1582 2.8877 Z" transform="translate(150.212, 136.185)"/>
  </g>
 </g>
</svg>
