<?xml version="1.0" encoding="UTF-8"?>
<svg width="595.28pt" version="1.1" xmlns="http://www.w3.org/2000/svg" height="841.89pt" viewBox="0 0 595.28 841.89" xmlns:xlink="http://www.w3.org/1999/xlink">
 <defs>
  <clipPath id="Clip0">
   <path d="M0 0 L0 128.425 L279.63 128.425 L279.63 0 L0 0 Z" transform="translate(150, 210.778)"/>
  </clipPath>
 </defs>
 <g id="Background">
  <g id="Group1" clip-path="url(#Clip0)">
   <path style="fill:#7db813; fill-rule:nonzero;stroke:none;" d="M0.434 1.208 L0.129 0 C0.136 0.218 0.1 0.441 0.018 0.684 C0 0.971 0.218 1.056 0.434 1.208 " transform="translate(308.346, 327.845)"/>
   <path style="fill:#7db813; fill-rule:nonzero;stroke:none;" d="M0.181 0.37 L0.126 0.157 L0 0 L0.181 0.37 " transform="translate(308, 326.359)"/>
   <path style="fill:#7db813; fill-rule:nonzero;stroke:none;" d="M0 0 C0.068 0.381 0.201 0.722 0.356 1.047 C0.324 0.728 0.22 0.379 0 0 " transform="translate(307.345, 324.721)"/>
   <path style="fill:#7db813; fill-rule:nonzero;stroke:none;" d="M0 0.661 C0.08 0.497 0.186 0.4 0.342 0.584 L0.347 0.591 L0.048 0 L0 0.661 " transform="translate(307.653, 325.768)"/>
   <path style="fill:#7db813; fill-rule:nonzero;stroke:none;" d="M0.171 0 C0.095 0.16 0.046 0.386 0 0.474 L0.171 0 " transform="translate(307.482, 326.429)"/>
   <path style="fill:#7db813; fill-rule:nonzero;stroke:none;" d="M3.392 7.811 C3.241 7.636 4.056 7.441 3.752 7.085 C3.23 6.193 2.63 5.481 2.345 4.591 C2.033 4.241 2.708 3.317 2.397 2.97 C1.859 2.082 0 0 0.517 1.42 C1.333 3.538 2.025 4.866 2.755 6.776 C3.553 8.262 4.426 9.665 5.17 11.22 C5.339 11.666 5.398 12.115 5.468 12.562 C5.432 11.964 5.391 11.35 5.326 10.675 C5.315 9.768 3.971 9.061 3.392 7.811 " transform="translate(301.275, 318.954)"/>
   <path style="fill:#7db813; fill-rule:nonzero;stroke:none;" d="M1.367 3.476 C1.221 3.29 0.928 2.921 0.928 2.921 C1.263 1.837 0.773 0.915 0.287 0 L0 0.543 C0.195 1.091 0.438 1.095 0.481 0.549 C0.295 1.821 0.504 2.913 0.879 3.991 C1.081 3.866 1.338 3.816 1.367 3.476 " transform="translate(309.358, 334.533)"/>
   <path style="fill:#7db813; fill-rule:nonzero;stroke:none;" d="M0.304 0.629 L0.065 0 L0 0.043 L0.289 0.656 L0.304 0.629 " transform="translate(310.172, 338.524)"/>
   <path style="fill:#7db813; fill-rule:nonzero;stroke:none;" d="M67.7065 78.463 C66.8075 75.738 65.9305 73.18 65.1375 70.66 C64.9145 70.526 64.6855 70.455 64.6845 70.168 C64.7485 69.923 64.7645 69.699 64.7485 69.483 L64.3895 68.388 L64.1855 68.0274 L64.1795 68.0205 C64.0145 67.8506 63.9145 67.9541 63.8465 68.121 L63.7025 68.606 C63.7435 68.512 63.7795 68.287 63.8465 68.121 C63.8835 67.917 63.8905 67.6954 63.8525 67.4571 C63.6815 67.1455 63.5265 66.8145 63.4395 66.4385 C63.6795 66.8028 63.8065 67.1436 63.8525 67.4571 L64.1855 68.0274 L64.3225 68.18 L63.5115 65.667 L63.2455 65.1807 C62.9075 64.6319 62.5715 64.083 62.8045 63.5674 L62.6545 63.1202 L62.6185 63.2315 L62.6275 63.0411 L61.9925 61.1465 L61.0425 60.1104 C61.0425 60.1104 61.1825 59.7266 61.2535 59.5352 C60.9915 59.4493 60.7625 59.2637 60.5825 59.0147 C60.4885 59.4395 60.3625 59.8496 60.3215 60.1934 C60.1075 60.7647 61.4825 60.7911 60.9575 61.5782 C61.4825 60.7911 60.1075 60.7647 60.3215 60.1934 C60.3625 59.8496 60.4885 59.4395 60.5825 59.0147 C60.2005 58.4913 60.0225 57.6836 60.1425 56.919 C60.7825 57.5284 60.7355 58.2998 60.5825 59.0147 C60.7625 59.2637 60.9915 59.4493 61.2535 59.5352 C61.1825 59.7266 61.0425 60.1104 61.0425 60.1104 L61.9925 61.1465 L60.6545 57.4063 C57.6835 49.2422 54.0665 42.0596 49.5945 34.1641 C47.1895 29.8711 44.7455 25.7842 42.1125 21.8301 C36.6675 13.9532 29.7045 8.6827 20.7595 2.9541 C17.2665 0.5401 9.04 0 5.0507 0.9444 C0 3.3506 3.7607 6.2764 3.8593 6.4502 C7.0312 8.9434 8.9619 6.7539 13.8865 9.4014 C10.4804 7.7334 17.1125 7.793 19.4175 11.2413 C22.2995 15.8829 29.0475 17.7198 32.8335 22.9737 C33.7475 24.2149 34.9305 25.3438 36.0715 26.8067 C41.2785 34.8555 47.0575 41.9883 51.4625 51.46 C52.6765 53.9297 54.3865 55.8164 55.7205 57.7911 C56.5495 59.2959 56.8585 61.1592 57.4045 62.4327 C58.2385 64.4532 59.1925 66.1045 60.1955 67.6602 C59.3165 65.8282 58.5725 64.5371 57.6115 62.501 C56.9835 61.1368 59.0135 63.0518 59.5845 63.9053 C59.9165 64.2344 59.2995 65.2012 59.6305 65.5254 C59.9695 66.3916 60.6455 67.044 61.2075 67.9014 C61.5295 68.235 60.7285 68.483 60.8895 68.65 C61.5395 69.857 62.9125 70.475 63.0005 71.372 C63.1135 72.038 63.1795 72.649 63.2525 73.24 C63.3305 73.604 63.4135 73.961 63.5715 74.315 L64.0145 74.948 C64.1915 74.678 64.4645 74.508 64.7395 74.341 C64.8135 74.697 64.8075 75.238 64.8835 75.597 C64.8075 75.238 64.8135 74.697 64.7395 74.341 C64.4645 74.508 64.1915 74.678 64.0145 74.948 C65.0855 76.478 66.1275 78.326 67.0755 80.055 L67.1385 80.005 C66.7075 78.955 66.4365 77.881 66.5565 76.604 C66.5385 77.147 66.2985 77.159 66.0715 76.622 L66.3285 76.066 C66.8665 76.952 67.4045 77.841 67.1275 78.938 C67.1275 78.938 67.4395 79.291 67.5975 79.468 C67.5865 79.808 67.3305 79.872 67.1385 80.005 L67.4095 80.622 C67.6585 80.047 67.7065 78.464 67.7065 78.463 " transform="translate(237.523, 242.118)"/>
   <path style="fill:#7db813; fill-rule:nonzero;stroke:none;" d="M0.647 1.6181 L0.9 2.1094 L0.233 0 C0 0.5049 0.316 1.0605 0.647 1.6181 " transform="translate(300.743, 307.925)"/>
   <path style="fill:#7db813; fill-rule:nonzero;stroke:none;" d="M0.406 0 L0 0.293 C0.106 0.2852 0.235 0.3076 0.404 0.3711 C0.554 0.3779 0.463 0.1894 0.406 0 " transform="translate(318.565, 263.341)"/>
   <path style="fill:#7db813; fill-rule:nonzero;stroke:none;" d="M0.075 0 L0.002 0.0508 L0 0.1611 L0.075 0 " transform="translate(318.109, 263.899)"/>
   <path style="fill:#7db813; fill-rule:nonzero;stroke:none;" d="M0 0.3174 C0.149 0.2539 0.239 0.1358 0.309 0 C0.168 0.0313 0.056 0.125 0 0.3174 " transform="translate(317.686, 264.322)"/>
   <path style="fill:#7db813; fill-rule:nonzero;stroke:none;" d="M0.36 0.291 C0.229 0.2266 0.116 0.1377 0.113 0.0039 L0.114 0 L0 0.2617 L0.36 0.291 " transform="translate(317.995, 264.061)"/>
   <path style="fill:#7db813; fill-rule:nonzero;stroke:none;" d="M0 0 C0.126 0.0625 0.269 0.1006 0.341 0.1387 L0 0 " transform="translate(318.355, 264.352)"/>
   <path style="fill:#7db813; fill-rule:nonzero;stroke:none;" d="M1.898 1.8457 C1.904 1.9756 1.309 1.29 1.318 1.5498 C1.192 1.998 1.216 2.5156 0.941 2.7558 C0.949 3.0088 0.08 2.4638 0.102 2.7304 C0 3.2002 0.158 4.7783 0.527 4.3242 C1.029 3.5957 1.276 3.0254 1.776 2.3925 C2.017 1.7021 2.198 0.9697 2.485 0.2861 C2.598 0.1308 2.777 0.0693 2.95 0 L2.128 0.165 C1.702 0.2031 2.161 1.3457 1.898 1.8457 " transform="translate(318.444, 265.025)"/>
   <path style="fill:#7db813; fill-rule:nonzero;stroke:none;" d="M0.991 0 C0.989 0.1357 0.99 0.4052 0.99 0.4052 C0.285 0.1513 0.14 0.6162 0 1.0742 L0.426 1.3037 C0.567 1.1132 0.425 0.9003 0.143 0.8837 C0.851 0.999 1.236 0.7773 1.519 0.4101 C1.341 0.2373 1.167 0.0136 0.991 0 " transform="translate(321.096, 261.363)"/>
   <path style="fill:#7db813; fill-rule:nonzero;stroke:none;" d="M0.153 0 L0 0.2324 L0.057 0.2871 L0.174 0.0117 L0.153 0 " transform="translate(322.615, 261.541)"/>
   <path style="fill:#7db813; fill-rule:nonzero;stroke:none;" d="M22.881 0.0049 C22.104 0.8437 21.32 1.5791 20.52 2.2676 C20.592 2.4473 20.699 2.6289 20.547 2.6328 L20.138 2.585 L19.783 2.8799 L19.72 3.0449 L19.721 3.0508 C19.737 3.1826 19.857 3.2607 19.991 3.3135 L20.344 3.4238 C20.267 3.3926 20.123 3.3652 19.991 3.3135 L19.631 3.3145 C19.573 3.4521 19.496 3.5771 19.349 3.6494 C19.39 3.457 19.492 3.3535 19.631 3.3145 L19.72 3.0449 L19.714 2.9346 L18.881 3.5967 L18.783 3.8027 C18.687 4.0566 18.638 4.3496 18.203 4.1748 L18.063 4.3027 L18.147 4.3291 L18.039 4.3262 L17.446 4.8701 L17.506 5.6123 C17.506 5.6123 17.2 5.5117 17.046 5.4609 C17.174 5.6621 17.224 5.8389 17.207 5.9795 C17.507 6.043 17.818 6.1328 18.036 6.1602 C18.494 6.3164 17.589 5.2666 18.374 5.6582 C17.589 5.2666 18.494 6.3164 18.036 6.1602 C17.818 6.1328 17.507 6.043 17.207 5.9795 C17.174 6.2783 16.846 6.4248 16.336 6.3525 C16.242 5.8584 16.707 5.875 17.207 5.9795 C17.224 5.8389 17.174 5.6621 17.046 5.4609 C17.2 5.5117 17.506 5.6123 17.506 5.6123 L17.446 4.8701 L16.261 5.957 C13.533 8.2432 11.877 11.0996 9.719 14.0957 C8.658 15.791 7.269 17.291 6.184 18.9346 C3.751 22.2197 4.095 25.8828 1.033 29.2969 C0.023 30.6523 0.094 33.5283 0 34.9746 C1.252 37.0498 5.262 36.3691 5.49 36.3291 C8.936 35.5654 7.217 34.5254 9.429 32.6357 C8.172 33.9707 7.392 31.1611 9.955 30.2353 C13.839 29.0723 11.554 25.7529 13.331 23.7969 C13.736 23.3213 13.793 22.6865 14.087 22.0518 C16.474 19.209 16.751 15.6836 19.16 12.6221 C19.667 11.7578 19.66 10.6064 19.829 9.6172 C20.115 9.0186 20.894 8.7646 21.22 8.3613 C21.74 7.7275 21.901 6.9385 22.123 6.1934 C21.675 6.8398 21.558 7.4687 21.118 8.2041 C20.804 8.6807 20.476 7.1475 20.529 6.6758 C20.48 6.4131 21.397 6.8809 21.344 6.6201 C21.561 6.3428 21.513 5.8545 21.589 5.3984 C21.556 5.1436 22.21 5.7744 22.193 5.6484 C22.407 5.1387 21.848 4.0449 22.267 3.9746 L23.066 3.7539 C23.202 3.6865 23.331 3.6152 23.409 3.4844 L23.449 3.1182 C23.199 2.9766 22.939 2.7568 22.678 2.5342 C22.812 2.4687 23.094 2.4687 23.228 2.4023 C23.094 2.4687 22.812 2.4687 22.678 2.5342 C22.939 2.7568 23.199 2.9766 23.449 3.1182 C23.559 2.2451 23.796 1.3223 24.061 0.4941 L23.998 0.4424 C23.75 0.8271 23.389 1.0752 22.678 1.0098 C22.96 1.0098 23.117 1.21 22.995 1.4102 L22.554 1.2129 C22.655 0.7451 22.762 0.2715 23.478 0.4766 C23.478 0.4766 23.458 0.207 23.447 0.0713 C23.622 0.0723 23.813 0.2842 23.998 0.4424 L24.138 0.2051 C23.693 0 22.883 0.0059 22.881 0.0049 " transform="translate(294.03, 266.482)"/>
   <path style="fill:#7db813; fill-rule:nonzero;stroke:none;" d="M0.607 0.205 L0.708 0 L0 0.5439 C0.434 0.7304 0.519 0.4707 0.607 0.205 " transform="translate(313.026, 269.58)"/>
   <path style="fill:#d60057; fill-rule:nonzero;stroke:none;" d="M57.2803 21.0576 C48.7666 14.0264 30.2422 10.8447 20.1846 18.7802 C0 34.1572 38.0517 53.3545 52.0859 55.6933 C68.1123 58.3662 83.0643 58.9023 86.8043 43.9463 C89.4503 33.3476 77.1083 20.3896 68.1123 15.1045 C59.0312 9.7627 23.5674 0 28.0283 16.2285 " transform="translate(190.68, 203.5)"/>
   <path style="fill:#d60057; fill-rule:nonzero;stroke:none;" d="M14.4356 1.39839 C24.2286 0 33.2843 0.85254 41.0443 8.62009 C50.5033 18.0899 37.3763 25.79 28.4053 26.2461 C21.5791 25.4561 7.0625 27.499 3.0948 16.7871 C0 8.43069 13.9659 3.98049 19.8243 3.50389 C25.9473 2.89059 36.6673 9.44829 31.1651 16.0547 C28.0743 19.3584 18.1758 23.2608 14.7012 18.3399 C6.6524 7.64059 30.5694 12.1484 20.8116 16.332 " transform="translate(217.011, 219.161)"/>
   <path style="fill:#ffffff; fill-rule:nonzero;stroke:none;" d="M0.6622 1.1543 C0 1.7109 1.0967 1.6387 2.2295 1.332 C2.3418 0.9287 2.4473 0.4824 2.4346 0 C1.9336 0.5615 1.253 0.7588 0.6622 1.1543 " transform="translate(237.277, 234.611)"/>
   <path style="fill:#ffffff; fill-rule:nonzero;stroke:none;" d="M2.543 0.3642 C1.6299 0 0.8018 0.0878 0 0.1914 C0.5713 0.1425 1.0908 0.2636 1.6866 0.3457 C2.71 1.79 0.9512 1.0058 0.3731 1.0976 C2.4785 1.9902 1.8438 0.624 2.543 0.3642 " transform="translate(237.424, 231.547)"/>
   <path style="fill:#ffffff; fill-rule:nonzero;stroke:none;" d="M1.4551 0.0976 C0 0 0.4482 0.6552 0.9922 0.8691 C1.0781 0.5674 2.0312 0.3545 1.4551 0.0976 " transform="translate(233.893, 231.029)"/>
   <path style="fill:#ffffff; fill-rule:nonzero;stroke:none;" d="M1.4746 0.541 C1.0517 0.3378 0.5507 0.165 0.6523 0 C0.1357 0.1074 0 0.2431 1.4746 0.541 " transform="translate(231.565, 246.784)"/>
   <path style="fill:#ffffff; fill-rule:nonzero;stroke:none;" d="M0 0.0596 L0.3301 0 L0.0312 0 L0 0.0596 " transform="translate(232.217, 246.725)"/>
   <path style="fill:#ffffff; fill-rule:nonzero;stroke:none;" d="M14.666 12.3311 C15.6729 11.3516 16.5186 11.3272 17.71 10.7383 L18.6406 11.2842 C19.9297 10.6768 19.0606 10.4453 19.9775 9.81448 C21.5684 9.94918 23.5752 9.25488 23.8213 9.45998 C24.0488 9.85258 23.4209 9.93558 23.3125 10.1426 C24.2734 9.98928 24.4473 9.17868 26.0879 9.70998 L26.0381 9.92578 C28.1592 10.0235 30.7031 11.7022 31.1494 12.8106 C31.6025 13.4766 31.2363 14.8848 28.6113 16.5742 C28.9619 16.4512 28.9443 16.624 29.1484 16.6963 C26.7158 18.2403 23.2178 19.3516 20.9512 18.9326 C19.2793 18.8574 16.2715 15.9024 16.6826 14.3867 C15.835 15.2754 16.6201 17.9317 18.2588 19.6319 C19.8477 21.3692 22.7529 21.4229 24.3174 20.333 C25.7588 20.7871 27.501 19.2344 28.2881 19.7823 C33.2305 17.9551 34.6826 14.6514 33.0977 11.4873 C32.9404 10.9131 33.419 10.958 33.6533 10.6035 C34.4492 11.5811 34.9072 12.8291 34.751 14.1231 C35.0088 13.378 35.0957 12.5254 34.919 11.7012 C35.8567 12.7071 34.9629 15.4326 35.3018 15.9971 C37.1917 11.5323 32.1035 6.33888 28.8408 6.24898 C30.0723 7.00488 31.7217 7.82518 32.8535 9.10738 C33.1904 9.82618 33.6348 10.8194 33.2275 10.96 C30.083 8.33988 26.2373 6.09078 22.083 6.69728 C20.9551 6.88668 19.333 7.19918 19.0498 6.87988 C19.8066 6.57618 19.1426 6.40328 19.7588 6.07908 C18.1143 6.78618 19.8779 7.42288 17.4541 7.91988 L17.3936 6.55958 C16.8496 8.17678 14.3057 7.25878 13.002 8.80758 C12.1856 8.60448 13.1279 7.80468 14.4356 7.24218 C12.8613 7.64848 13.0283 8.39458 11.9356 8.95798 L12.5078 7.40138 C11.7422 8.95308 10.2422 8.35648 9.3311 8.52738 C9.4346 8.82518 10.4385 9.08298 9.0732 10.044 C8.415 10.376 8.5215 9.93068 8.2822 9.91408 C8.3662 10.1758 8.2666 10.9776 7.5791 11.7549 C7.1377 11.6553 7.6377 10.8545 7.4326 10.5264 C6.7881 11.1387 6.5059 11.7959 5.8565 12.1543 C5.4619 13.7119 6.3721 12.3399 6.3565 13.3242 C5.4473 15.3223 5.0117 13.1123 3.9961 13.7842 C3.9063 11.3604 5.8574 9.03518 6.4961 8.11818 C5.5508 9.11618 4.6475 10.2266 4.0566 11.6153 C3.7354 11.0352 2.0938 14.3653 2.6729 11.752 C0 17.3272 4.0752 22.709 7.1465 24.8184 C6.7979 24.3438 6.3838 23.711 6.6582 23.6143 C8.2686 24.8545 7.8447 24.9912 7.9648 25.5586 C9.3731 26.2627 9.6856 25.3838 10.6856 25.3496 C12.958 27.1895 13.5059 26.8887 15.5938 28.3828 L15.6221 27.6055 C17.1397 28.586 17.582 27.4531 19.2471 28.1436 C19.3252 28.3223 18.6338 28.4414 18.0596 28.5225 C19.6553 28.5078 19.4297 29.3467 20.9912 29.2119 L19.6885 29.9405 C20.9482 30.0694 22.7295 29.878 22.0615 30.5781 C24.2451 29.8653 27.876 30.2168 30.1475 29.918 L29.9385 30.5645 C32.1631 30.0137 35.7377 29.9883 36.8297 28.6602 L37.1137 28.8565 C37.9347 28.2403 38.7467 27.6934 39.4767 27.0088 C40.6737 26.5606 40.7177 27.6319 40.6897 27.3418 C43.2317 25.9112 45.0287 24.4463 46.6727 23.1573 C46.3927 22.2539 48.3707 19.4883 48.3657 16.6709 C46.4427 3.11528 31.2051 0 22.1982 1.625 C20.7217 1.66211 18.8262 2.92678 17.1279 3.54008 C19.3184 3.54398 19.4707 2.97848 21.6133 2.87308 C23.2295 3.06638 23.8516 3.86228 25.1309 4.53708 L24.4775 3.75298 C26.6074 3.26268 25.8897 4.20898 27.6113 3.56638 L27.416 4.75778 C28.0391 4.23538 29.3877 4.97068 29.877 5.36228 L30.5703 4.62888 C31.6885 5.44728 32.4023 5.86038 32.5117 6.67968 L32.6436 5.92188 C32.9863 6.37988 37.0017 7.76958 35.1143 8.28518 C35.5107 8.24808 35.9817 8.05468 36.5697 8.57128 L36.2677 9.28618 C37.2497 9.71288 38.3987 10.1973 38.3287 10.8057 C37.7867 10.5381 37.4057 10.7471 37.0597 10.9151 C40.2837 13.8604 39.5647 9.51758 42.4497 12.3574 L42.0377 12.6397 C42.3617 12.7744 42.7917 12.8975 43.0597 13.0664 L42.9977 14.1778 C45.4137 14.8379 43.8037 17.8955 42.6047 19.7344 C42.0597 20.5117 40.5177 20.5352 39.0197 21.4854 L39.5007 22.0928 C37.9037 22.4131 32.1738 23.5801 30.96 21.6358 C32.2139 22.0655 30.625 21.9473 31.415 22.0655 C29.9668 22.0655 31.4688 22.0899 31.1182 22.3877 C29.3301 23.086 27.8975 21.8106 26.5811 21.3272 C24.6084 21.6446 28.0859 21.667 27.0127 22.209 C24.0488 21.5117 24.5049 23.1182 21.0742 22.3467 C20.7734 21.8936 21.9746 22.127 22.3565 21.8594 C19.8691 22.5098 15.499 21.4668 13.2383 20.1836 C12.0225 19.1758 11.0664 17.9717 10.5879 16.2959 C10.3555 14.7969 10.5986 15.6524 11.626 14.7168 L11.4609 14.4912 C12.6397 14.2901 13.7041 12.8184 15.7285 12.3037 L14.666 12.3311 " transform="translate(214.487, 218.202)"/>
   <path style="fill:#ffffff; fill-rule:nonzero;stroke:none;" d="M0 3.1884 L0.8308 3.123 C1.3028 2.2275 1.6048 1.0761 1.6298 0 C0.8678 1.1191 1.0578 1.9111 0 3.1884 " transform="translate(249.784, 232.597)"/>
   <path style="fill:#ffffff; fill-rule:nonzero;stroke:none;" d="M0.4932 0.5235 C0.332 0.8868 0.2539 1.3497 0 1.6719 C0.4385 1.1827 0.8115 0.5938 1.0899 0 C0.9385 0.21 0.7031 0.3643 0.4932 0.5235 " transform="translate(247.962, 233.685)"/>
   <path style="fill:#ffffff; fill-rule:nonzero;stroke:none;" d="M0 2.1592 L0.332 2.1221 C1.668 1.2988 3.0899 0.625 4.5459 0 C2.9805 0.6289 1.4424 1.2988 0 2.1592 " transform="translate(226.745, 222.591)"/>
   <path style="fill:#ffffff; fill-rule:nonzero;stroke:none;" d="M2.0586 0.003 C1.4394 0.2471 0.6474 0 0 0.0997 L2.3818 0.1563 L2.0586 0.003 " transform="translate(230.71, 247.951)"/>
   <path style="fill:#ffffff; fill-rule:nonzero;stroke:none;" d="M1.177 1.4619 C1.606 0 2.989 0.5986 1.333 0.2343 C0 1.0488 1.423 0.9209 1.177 1.4619 " transform="translate(254.793, 247.351)"/>
   <path style="fill:#ffffff; fill-rule:nonzero;stroke:none;" d="M1.396 0 C0.645 0.5772 0.32 0.9473 0 1.3975 C1.307 1.1163 1.01 0.6465 1.396 0 " transform="translate(258.871, 244.23)"/>
   <path style="fill:#161413; fill-rule:nonzero;stroke:none;" d="M0.494141 0.7617 C2.24023 0.3789 6.37988 0 9.41797 0 C15.6465 0 18.7227 2.166 18.7227 6.3808 C18.7227 10.4433 15.4951 12.1523 12.7617 13.0693 L12.7617 13.1445 C13.5967 14.5508 16.4443 18.6123 18.5742 21.4228 C20.7002 24.2353 21.3457 24.917 21.8018 25.5644 L21.5332 25.8691 C18.6475 25.6767 16.9766 24.6152 15.4189 22.8652 C13.7871 21.0058 11.0908 17.3594 8.6582 13.5244 L8.77441 13.2949 C12.3428 12.3476 15.0771 10.791 15.0771 6.9502 C15.0771 2.2041 11.166 1.3672 6.75977 1.4824 L6.75977 13.1445 C6.75977 18.3476 6.72363 21.2705 6.83594 23.1709 L10.5586 24.3867 L10.291 25.2988 C8.46875 25.2988 6.72363 25.2597 4.89941 25.2597 C3.26563 25.2597 1.63281 25.2988 0 25.2988 L0.265625 24.3867 L3.11328 23.209 C3.18945 21.7676 3.37695 18.1582 3.37695 13.1777 L3.37695 2.166 L0.152344 1.7109 L0.494141 0.7617 " transform="translate(150, 277.191)"/>
   <path style="fill:#161413; fill-rule:nonzero;stroke:none;" d="M12.9903 1.4053 C7.2559 1.4053 3.9903 6.3799 3.9903 12.8779 C3.9903 19.0664 7.711 25.0693 13.753 25.0693 C20.2491 25.0693 22.5625 18.9531 22.5625 13.2187 C22.5625 6.8721 18.6143 1.4053 13.0284 1.4053 L12.9903 1.4053 Z M13.2178 0 C19.2959 0 26.4375 4.0635 26.5518 12.7646 C26.7032 22.334 19.5616 26.4355 13.3321 26.4355 C7.0284 26.4355 0 22.334 0 13.4795 C0 4.4814 7.3702 0 13.1836 0 L13.2178 0 Z" transform="translate(183.557, 276.737)"/>
   <path style="fill:#161413; fill-rule:nonzero;stroke:none;" d="M8.4326 0 C10.2549 0 11.6602 0.6435 12.4189 1.2158 C12.9502 0.7949 14.0898 0.3027 14.9648 0 L15.3086 0.1904 C15.1572 1.2539 14.5117 4.5937 13.9375 5.9619 L13.3682 6.2646 C12.915 5.3535 12.2715 3.2646 12.0391 2.542 C11.5459 2.165 10.293 1.5947 8.6982 1.5947 C5.6982 1.5947 3.9521 3.6513 3.9521 5.9619 C3.9521 7.7461 4.708 8.8096 6.1543 9.6894 C7.7109 10.6387 9.7236 11.5879 11.8496 12.7265 C15.6084 14.7002 16.334 16.8281 16.334 18.914 C16.334 24.917 10.6728 26.4355 7.4453 26.4355 C4.3662 26.4355 1.0635 24.956 0 23.8916 C0.1904 22.8633 1.3701 19.7119 1.709 19.1426 L2.3193 18.8789 C2.5059 19.374 2.7334 20.4717 3.4932 24.1943 C3.9902 24.4609 5.2012 24.917 7.2168 24.8789 C10.6348 24.8408 12.874 23.0556 12.874 19.9404 C12.874 18.2724 12.0391 17.0156 10.1406 15.915 C8.2041 14.8525 6.2646 13.9785 4.4424 12.8388 C1.8262 11.2451 0.835 9.1885 0.835 6.9111 C0.835 3.4912 3.5723 0 8.3945 0 L8.4326 0 " transform="translate(223.496, 276.737)"/>
   <path style="fill:#161413; fill-rule:nonzero;stroke:none;" d="M0.719 0.3769 C2.276 0.3769 3.873 0.418 5.393 0.418 L14.813 0.418 C15.193 0.3008 17.281 0 17.964 0 L18.079 0.1133 C18.002 1.1387 17.357 4.4394 17.091 5.6191 L16.484 5.9609 C16.066 5.0488 15.155 2.7012 14.851 1.8574 L7.137 2.1621 L7.137 11.6621 C10.67 11.6621 14.433 11.4287 16.787 11.2002 L16.939 11.5459 C16.787 11.8838 15.114 13.75 14.66 13.75 C14.053 13.75 8.203 13.332 7.137 13.332 C7.137 15.8388 7.137 20.5107 7.291 23.6582 L15.345 23.9658 C16.142 22.9043 17.775 20.4736 18.648 19.4844 L19.407 19.4453 C19.293 20.6631 18.495 24.3076 18.079 25.5615 C15.61 25.4472 13.404 25.4472 11.205 25.4472 L5.202 25.4472 C3.494 25.4472 1.596 25.4863 0 25.4863 L0.301 24.5742 L3.529 23.4736 C3.646 23.0166 3.759 18.7998 3.759 12.4219 L3.759 2.3144 L0.453 1.25 L0.719 0.3769 " transform="translate(253.468, 277.004)"/>
   <path style="fill:#161413; fill-rule:nonzero;stroke:none;" d="M0.727 0 C2.013 0 3.536 0.0351 5.244 0.0351 C6.915 0.0351 8.475 0 9.952 0 L9.613 0.9101 L6.953 2.0498 L6.953 11.9648 C6.953 18.0019 7.03 22.5986 7.106 23.207 L15.232 23.7001 C16.183 22.2578 17.93 19.6738 18.766 18.7246 L19.489 18.6894 C19.334 20.3974 18.575 24.1562 18.193 25.1816 C16.866 25.1816 13.752 25.0292 5.316 25.0292 C3.498 25.0292 1.672 25.0683 0 25.0683 L0.268 24.1943 L3.417 23.0556 C3.498 22.5605 3.571 17.9277 3.571 12.0039 L3.571 2.0498 L0.422 0.9101 L0.727 0 " transform="translate(346.845, 277.422)"/>
   <path style="fill:#161413; fill-rule:nonzero;stroke:none;" d="M0.723 0 C2.012 0 3.535 0.0351 5.243 0.0351 C6.915 0.0351 8.472 0 9.953 0 L9.61 0.9101 L6.952 2.0498 L6.952 11.9648 C6.952 18.0019 7.028 22.5986 7.104 23.207 L9.553 23.7001 C10.581 23.5898 12.644 25.0292 8.52 25.0292 C6.697 25.0292 1.671 25.0683 0 25.0683 L0.266 24.1943 L3.417 23.0556 C3.497 22.5605 3.573 17.9277 3.573 12.0039 L3.573 2.0498 L0.418 0.9101 L0.723 0 " transform="translate(322.147, 277.422)"/>
   <path style="fill:#161413; fill-rule:nonzero;stroke:none;" d="M0.719 0 C2.012 0 3.532 0.0351 5.24 0.0351 C6.913 0.0351 8.471 0 9.954 0 L9.611 0.9101 L6.949 2.0498 L6.949 11.9648 C6.949 18.0019 7.027 22.5986 7.103 23.207 L15.23 23.7001 C16.18 22.2578 17.926 19.6738 18.762 18.7246 L19.482 18.6894 C19.331 20.3974 18.576 24.1562 18.196 25.1816 C16.863 25.1816 13.748 25.0292 5.318 25.0292 C3.494 25.0292 1.671 25.0683 0 25.0683 L0.266 24.1943 L3.417 23.0556 C3.494 22.5605 3.567 17.9277 3.567 12.0039 L3.567 2.0498 L0.415 0.9101 L0.719 0 " transform="translate(379.627, 277.422)"/>
   <path style="fill:#161413; fill-rule:nonzero;stroke:none;" d="M0.724 0.3769 C2.28 0.3769 3.876 0.418 5.395 0.418 L14.82 0.418 C15.195 0.3008 17.283 0 17.969 0 L18.08 0.1133 C18.005 1.1387 17.36 4.4394 17.096 5.6191 L16.487 5.9609 C16.068 5.0488 15.159 2.7012 14.853 1.8574 L7.139 2.1621 L7.139 11.6621 C10.676 11.6621 14.435 11.4287 16.785 11.2002 L16.943 11.5459 C16.785 11.8838 15.118 13.75 14.663 13.75 C14.052 13.75 8.205 13.332 7.139 13.332 C7.139 15.8388 7.139 20.5107 7.297 23.6582 L15.347 23.9658 C16.144 22.9043 17.777 20.4736 18.65 19.4844 L19.41 19.4453 C19.298 20.6631 18.499 24.3076 18.08 25.5615 C15.614 25.4472 13.41 25.4472 11.204 25.4472 L5.209 25.4472 C3.496 25.4472 1.595 25.4863 0 25.4863 L0.305 24.5742 L3.531 23.4736 C3.649 23.0166 3.76 18.7998 3.76 12.4219 L3.76 2.3144 L0.456 1.25 L0.724 0.3769 " transform="translate(410.22, 277.004)"/>
   <path style="fill:#161413; fill-rule:nonzero;stroke:none;" d="M0.14746 0.278 C1.51367 0.129 3.00976 0 4.00683 0 C5.52148 0 6.59277 0.204 7.49707 0.776 C8.62407 1.459 9.01167 2.623 9.01167 3.621 C9.01167 6.557 6.44433 7.424 4.98632 7.424 C4.67187 7.424 4.45019 7.406 4.24707 7.332 L4.0625 6.871 C6.20507 6.705 7.18359 5.467 7.18359 3.712 C7.18359 1.349 5.44726 0.628 3.13867 0.703 L3.13867 5.707 C3.13867 10.102 3.25 10.952 3.25 11.266 L5.28125 11.857 L5.11523 12.3 C4.17285 12.3 3.21289 12.282 2.25293 12.282 C1.51367 12.282 0.75683 12.3 0.01757 12.3 L0.1289 11.875 L1.42187 11.285 C1.49511 10.915 1.49511 10.01 1.49511 5.762 L1.49511 1.072 L0 0.703 L0.14746 0.278 " transform="translate(151.47, 316.905)"/>
   <path style="fill:#161413; fill-rule:nonzero;stroke:none;" d="M0.3506 0.184 C1.1074 0.184 1.8838 0.203 2.6221 0.203 L7.2022 0.203 C7.3867 0.147 8.4024 0 8.7354 0 L8.7901 0.054 C8.7529 0.553 8.4395 2.16 8.3106 2.732 L8.0147 2.899 C7.8115 2.456 7.3682 1.31 7.2207 0.904 L3.4717 1.051 L3.4717 5.669 C5.1895 5.669 7.0176 5.558 8.1621 5.447 L8.2363 5.614 C8.1621 5.78 7.3496 6.684 7.1279 6.684 C6.833 6.684 3.9883 6.481 3.4717 6.481 C3.4717 7.7 3.4717 9.972 3.5459 11.505 L7.461 11.652 C7.8487 11.135 8.6426 9.954 9.0674 9.473 L9.4365 9.455 C9.3809 10.046 8.9932 11.819 8.7901 12.428 C7.5899 12.373 6.5186 12.373 5.4473 12.373 L2.5293 12.373 C1.6983 12.373 0.7754 12.391 0 12.391 L0.1475 11.948 L1.7168 11.413 C1.7725 11.191 1.8281 9.141 1.8281 6.038 L1.8281 1.126 L0.2217 0.609 L0.3506 0.184 " transform="translate(164.933, 316.814)"/>
   <path style="fill:#161413; fill-rule:nonzero;stroke:none;" d="M0.2393 0.37 C1.0889 0.185 3.1026 0 4.5801 0 C7.6084 0 9.1045 1.053 9.1045 3.103 C9.1045 5.08 7.5342 5.911 6.2051 6.354 L6.2051 6.39 C6.6114 7.074 7.9961 9.05 9.0303 10.416 C10.0645 11.783 10.3789 12.116 10.6006 12.429 L10.4707 12.578 C9.0674 12.485 8.2549 11.968 7.4981 11.119 C6.7032 10.213 5.3926 8.44 4.21 6.575 L4.2657 6.464 C6.002 6.002 7.3311 5.246 7.3311 3.38 C7.3311 1.072 5.4287 0.665 3.2871 0.721 L3.2871 6.39 C3.2871 8.92 3.2686 10.342 3.3243 11.266 L5.1338 11.857 L5.0049 12.3 C4.1182 12.3 3.2686 12.282 2.3819 12.282 C1.5879 12.282 0.794 12.3 0 12.3 L0.1289 11.857 L1.5137 11.285 C1.5508 10.582 1.6436 8.829 1.6436 6.409 L1.6436 1.053 L0.0733 0.832 L0.2393 0.37 " transform="translate(179.023, 316.905)"/>
   <path style="fill:#161413; fill-rule:nonzero;stroke:none;" d="M0.166 0.203 C0.8311 0.203 1.5518 0.222 2.2344 0.222 L6.9072 0.222 C7.1104 0.185 8.1074 0 8.4033 0 L8.458 0.055 C8.4404 0.425 8.1445 2.309 8.0342 2.807 L7.7012 2.991 C7.3877 2.253 7.1475 1.588 6.9258 0.923 L3.1768 1.07 L3.1768 5.983 C4.9131 5.983 6.833 5.891 7.9785 5.743 L8.0518 5.928 C7.9785 6.094 7.1475 6.999 6.999 6.999 C6.5752 6.999 3.7305 6.796 3.1768 6.796 C3.1768 9.991 3.2139 10.877 3.251 11.376 L5.3008 11.967 L5.1524 12.41 C4.4141 12.41 3.4356 12.392 2.3828 12.392 C1.625 12.392 0.8496 12.41 0.0371 12.41 L0.1475 11.985 L1.459 11.376 C1.5147 11.117 1.5332 9.455 1.5332 6.075 L1.5332 1.145 L0 0.609 L0.166 0.203 " transform="translate(194.037, 316.795)"/>
   <path style="fill:#161413; fill-rule:nonzero;stroke:none;" d="M0.3506 0.184 C1.1084 0.184 1.8838 0.203 2.6221 0.203 L7.2022 0.203 C7.3877 0.147 8.4033 0 8.7354 0 L8.791 0.054 C8.7539 0.553 8.4395 2.16 8.3106 2.732 L8.0156 2.899 C7.8125 2.456 7.3692 1.31 7.2207 0.904 L3.4717 1.051 L3.4717 5.669 C5.1895 5.669 7.0176 5.558 8.1631 5.447 L8.2363 5.614 C8.1631 5.78 7.3506 6.684 7.1289 6.684 C6.833 6.684 3.9893 6.481 3.4717 6.481 C3.4717 7.7 3.4717 9.972 3.5459 11.505 L7.461 11.652 C7.8486 11.135 8.6436 9.954 9.0674 9.473 L9.4375 9.455 C9.3819 10.046 8.9942 11.819 8.791 12.428 C7.5908 12.373 6.5195 12.373 5.4483 12.373 L2.5303 12.373 C1.6992 12.373 0.7754 12.391 0 12.391 L0.1475 11.948 L1.7178 11.413 C1.7735 11.191 1.8281 9.141 1.8281 6.038 L1.8281 1.126 L0.2217 0.609 L0.3506 0.184 " transform="translate(206.853, 316.814)"/>
   <path style="fill:#161413; fill-rule:nonzero;stroke:none;" d="M7.0186 0 C8.2002 0 9.2344 0.277 9.8994 0.702 C10.3428 0.425 10.8965 0.259 11.3028 0.166 L11.4131 0.24 C11.3399 0.978 10.878 2.844 10.6748 3.214 L10.3428 3.398 C10.1758 3.065 9.8438 1.976 9.7149 1.348 C9.3086 1.071 8.3291 0.794 7.3877 0.794 C3.916 0.794 1.8838 3.214 1.8838 6.427 C1.8838 9.585 4.0264 11.985 7.5909 11.985 C8.2002 11.985 8.5323 11.93 8.8096 11.838 C9.585 11.025 10.5088 10.102 10.9707 9.751 L11.3955 9.844 C11.2471 10.416 10.3789 12.078 10.1397 12.262 C9.4561 12.577 7.96 12.853 6.9444 12.853 C3.4912 12.853 0 10.933 0 6.519 C0 2.142 3.8418 0 6.9815 0 L7.0186 0 " transform="translate(221.036, 316.684)"/>
   <path style="fill:#161413; fill-rule:nonzero;stroke:none;" d="M9.4004 0.259 C9.7881 0.166 10.5264 0.037 10.9141 0 L10.9512 0.073 C10.9141 0.591 10.6006 2.271 10.416 3.01 L10.1201 3.158 C9.9541 2.696 9.4551 1.237 9.3633 0.923 L6.1309 1.071 L6.1309 5.651 C6.1309 10.397 6.2237 10.896 6.2422 11.432 L8.4024 12.004 L8.2364 12.447 C7.2764 12.447 6.2979 12.429 5.3369 12.429 C4.3399 12.429 3.3614 12.447 2.3457 12.447 L2.4746 12.004 L4.4317 11.432 C4.4688 10.804 4.4873 10.397 4.4873 6.261 L4.4873 1.071 L1.459 0.923 C1.2188 1.403 0.5723 2.696 0.3321 3.065 L0.0371 3.158 C0 2.475 0 0.646 0.0371 0.073 L0.0918 0 C0.3692 0.037 1.1446 0.185 1.4961 0.259 L9.4004 0.259 " transform="translate(237.437, 316.758)"/>
   <path style="fill:#161413; fill-rule:nonzero;stroke:none;" d="M0.35 0 C0.978 0 1.717 0.017 2.548 0.017 C3.361 0.017 4.118 0 4.838 0 L4.672 0.442 L3.379 0.997 L3.379 5.817 C3.379 8.753 3.416 10.988 3.453 11.283 L7.406 11.523 C7.867 10.821 8.717 9.566 9.123 9.104 L9.474 9.086 C9.4 9.917 9.031 11.745 8.846 12.244 C8.2 12.244 6.685 12.17 2.585 12.17 C1.699 12.17 0.812 12.188 0 12.188 L0.129 11.763 L1.662 11.21 C1.699 10.97 1.736 8.717 1.736 5.835 L1.736 0.997 L0.203 0.442 L0.35 0 " transform="translate(252.839, 317.017)"/>
   <path style="fill:#161413; fill-rule:nonzero;stroke:none;" d="M0.185 0 C0.905 0 1.644 0.017 2.346 0.017 C2.9 0.017 3.417 0.017 3.897 0 L3.786 0.461 L3.362 0.848 C3.657 1.476 4.581 3.084 6.187 5.946 L6.243 5.946 C7.185 4.191 8.237 2.178 8.865 0.941 L8.219 0.461 L8.385 0 C8.754 0.017 9.142 0.017 9.53 0.017 C10.25 0.017 10.878 0 11.58 0 L11.414 0.461 L10.564 0.775 C10.103 0.904 9.899 1.034 9.622 1.44 C8.92 2.511 7.775 4.413 6.723 6.371 C6.612 6.593 6.557 6.777 6.557 7.054 C6.557 9.548 6.575 10.914 6.612 11.173 L8.791 11.745 L8.644 12.188 C7.812 12.188 6.833 12.151 5.726 12.151 C4.636 12.151 3.657 12.188 2.808 12.188 L2.937 11.782 L4.802 11.173 C4.839 10.84 4.931 9.695 4.931 7.239 C4.931 7.017 4.876 6.796 4.747 6.555 C4.211 5.595 2.881 3.268 1.663 1.256 C1.293 0.867 0.924 0.664 0 0.425 L0.185 0 " transform="translate(265.064, 317.017)"/>
   <path style="fill:#161413; fill-rule:nonzero;stroke:none;" d="M0.147 0.278 C1.514 0.129 3.01 0 4.007 0 C5.521 0 6.593 0.204 7.498 0.776 C8.624 1.459 9.012 2.623 9.012 3.621 C9.012 6.557 6.445 7.424 4.986 7.424 C4.672 7.424 4.451 7.406 4.248 7.332 L4.062 6.871 C6.205 6.705 7.184 5.467 7.184 3.712 C7.184 1.349 5.448 0.628 3.139 0.703 L3.139 5.707 C3.139 10.102 3.25 10.952 3.25 11.266 L5.282 11.857 L5.115 12.3 C4.173 12.3 3.213 12.282 2.253 12.282 C1.514 12.282 0.757 12.3 0.018 12.3 L0.129 11.875 L1.422 11.285 C1.496 10.915 1.496 10.01 1.496 5.762 L1.496 1.072 L0 0.703 L0.147 0.278 " transform="translate(288.334, 316.905)"/>
   <path style="fill:#161413; fill-rule:nonzero;stroke:none;" d="M6.316 0.683 C3.527 0.683 1.939 3.102 1.939 6.261 C1.939 9.271 3.749 12.189 6.685 12.189 C9.844 12.189 10.97 9.216 10.97 6.427 C10.97 3.343 9.05 0.683 6.335 0.683 L6.316 0.683 Z M6.427 0 C9.382 0 12.854 1.976 12.909 6.205 C12.983 10.859 9.511 12.853 6.482 12.853 C3.417 12.853 0 10.859 0 6.556 C0 2.179 3.583 0 6.409 0 L6.427 0 Z" transform="translate(302.443, 316.684)"/>
   <path style="fill:#161413; fill-rule:nonzero;stroke:none;" d="M4.1 0 C4.986 0 5.669 0.314 6.038 0.591 C6.298 0.387 6.851 0.147 7.276 0 L7.442 0.093 C7.368 0.609 7.055 2.234 6.777 2.899 L6.501 3.047 C6.278 2.604 5.965 1.589 5.854 1.237 C5.614 1.053 5.005 0.775 4.229 0.775 C2.77 0.775 1.921 1.773 1.921 2.899 C1.921 3.767 2.29 4.285 2.991 4.709 C3.749 5.171 4.727 5.633 5.762 6.186 C7.59 7.147 7.94 8.181 7.94 9.197 C7.94 12.115 5.189 12.853 3.62 12.853 C2.124 12.853 0.517 12.134 0 11.616 C0.093 11.118 0.665 9.585 0.831 9.307 L1.126 9.178 C1.219 9.419 1.329 9.954 1.698 11.764 C1.938 11.893 2.53 12.115 3.509 12.096 C5.171 12.078 6.261 11.21 6.261 9.695 C6.261 8.883 5.854 8.273 4.931 7.738 C3.989 7.22 3.047 6.796 2.161 6.242 C0.886 5.467 0.406 4.47 0.406 3.361 C0.406 1.699 1.735 0 4.081 0 L4.1 0 " transform="translate(320.357, 316.684)"/>
   <path style="fill:#161413; fill-rule:nonzero;stroke:none;" d="M0.369 0 C1.09 0 1.809 0.017 2.529 0.017 C3.287 0.017 4.062 0 4.82 0 L4.69 0.442 L3.342 0.978 L3.342 5.835 C3.342 8.901 3.398 10.877 3.434 11.191 L5.134 11.745 L5.004 12.188 C4.303 12.188 3.49 12.17 2.529 12.17 C1.606 12.17 0.72 12.188 0 12.188 L0.129 11.745 L1.588 11.191 C1.662 10.895 1.699 8.901 1.699 5.835 L1.699 0.96 L0.24 0.425 L0.369 0 " transform="translate(332.823, 317.017)"/>
   <path style="fill:#161413; fill-rule:nonzero;stroke:none;" d="M9.4 0.259 C9.789 0.166 10.527 0.037 10.915 0 L10.952 0.073 C10.915 0.591 10.601 2.271 10.416 3.01 L10.121 3.158 C9.955 2.696 9.456 1.237 9.363 0.923 L6.132 1.071 L6.132 5.651 C6.132 10.397 6.224 10.896 6.242 11.432 L8.403 12.004 L8.237 12.447 C7.277 12.447 6.299 12.429 5.338 12.429 C4.34 12.429 3.361 12.447 2.345 12.447 L2.474 12.004 L4.432 11.432 C4.469 10.804 4.488 10.397 4.488 6.261 L4.488 1.071 L1.459 0.923 C1.219 1.403 0.573 2.696 0.333 3.065 L0.037 3.158 C0 2.475 0 0.646 0.037 0.073 L0.093 0 C0.37 0.037 1.145 0.185 1.496 0.259 L9.4 0.259 " transform="translate(342.573, 316.758)"/>
   <path style="fill:#161413; fill-rule:nonzero;stroke:none;" d="M0.37 0 C1.09 0 1.811 0.017 2.531 0.017 C3.288 0.017 4.064 0 4.821 0 L4.692 0.442 L3.344 0.978 L3.344 5.835 C3.344 8.901 3.399 10.877 3.436 11.191 L5.135 11.745 L5.006 12.188 C4.304 12.188 3.491 12.17 2.531 12.17 C1.608 12.17 0.721 12.188 0 12.188 L0.13 11.745 L1.589 11.191 C1.662 10.895 1.699 8.901 1.699 5.835 L1.699 0.96 L0.24 0.425 L0.37 0 " transform="translate(358.012, 317.017)"/>
   <path style="fill:#161413; fill-rule:nonzero;stroke:none;" d="M6.316 0.683 C3.527 0.683 1.939 3.102 1.939 6.261 C1.939 9.271 3.749 12.189 6.686 12.189 C9.844 12.189 10.971 9.216 10.971 6.427 C10.971 3.343 9.049 0.683 6.334 0.683 L6.316 0.683 Z M6.427 0 C9.382 0 12.853 1.976 12.909 6.205 C12.982 10.859 9.512 12.853 6.482 12.853 C3.416 12.853 0 10.859 0 6.556 C0 2.179 3.583 0 6.408 0 L6.427 0 Z" transform="translate(367.856, 316.684)"/>
   <path style="fill:#161413; fill-rule:nonzero;stroke:none;" d="M4.377 12.281 C3.656 12.281 2.972 12.263 2.179 12.263 C1.513 12.263 0.72 12.281 0.054 12.281 L0.166 11.838 L1.679 11.173 C1.736 10.379 1.92 7.332 2.012 1.939 C1.273 0.831 1.144 0.905 0 0.535 L0.166 0.093 L2.696 0 C2.752 0.129 3.028 0.591 3.398 1.053 C5.836 4.118 8.439 7.11 10.914 9.898 L10.969 9.898 C10.969 9.067 10.859 2.327 10.859 1.163 L9.289 0.518 L9.473 0.093 C10.157 0.093 10.766 0.11 11.339 0.11 C12.041 0.11 12.872 0.093 13.591 0.093 L13.481 0.572 L11.912 1.163 C11.892 1.994 11.745 7.258 11.709 10.675 C11.709 11.266 11.672 12.115 11.616 12.559 L11.413 12.65 C9.787 11.487 6.519 7.498 2.732 2.771 L2.696 2.771 C2.677 5.91 2.715 10.379 2.825 11.173 L4.506 11.838 L4.377 12.281 " transform="translate(385.327, 316.924)"/>
   <path style="fill:#161413; fill-rule:nonzero;stroke:none;" d="M0.352 0.184 C1.108 0.184 1.885 0.203 2.623 0.203 L7.203 0.203 C7.388 0.147 8.403 0 8.736 0 L8.791 0.054 C8.754 0.553 8.44 2.16 8.311 2.732 L8.016 2.899 C7.813 2.456 7.369 1.31 7.221 0.904 L3.473 1.051 L3.473 5.669 C5.19 5.669 7.018 5.558 8.163 5.447 L8.236 5.614 C8.163 5.78 7.351 6.684 7.129 6.684 C6.834 6.684 3.989 6.481 3.473 6.481 C3.473 7.7 3.473 9.972 3.547 11.505 L7.461 11.652 C7.85 11.135 8.644 9.954 9.068 9.473 L9.438 9.455 C9.382 10.046 8.994 11.819 8.791 12.428 C7.591 12.373 6.52 12.373 5.448 12.373 L2.53 12.373 C1.699 12.373 0.775 12.391 0 12.391 L0.148 11.948 L1.718 11.413 C1.774 11.191 1.828 9.141 1.828 6.038 L1.828 1.126 L0.223 0.609 L0.352 0.184 " transform="translate(402.852, 316.814)"/>
   <path style="fill:#161413; fill-rule:nonzero;stroke:none;" d="M3.36 5.947 C3.36 8.995 3.36 11.432 3.435 11.654 C5.54 11.654 7.368 11.303 8.569 10.232 C9.622 9.308 10.305 7.96 10.305 6.002 C10.305 4.415 9.862 3.047 8.607 2.013 C7.368 0.998 5.726 0.684 3.36 0.703 L3.36 5.947 Z M0.239 0.241 C0.646 0.204 2.401 0 4.506 0 C9.16 0 12.207 1.847 12.207 5.929 C12.207 9.567 9.806 11.063 8.2 11.654 C6.741 12.207 5.097 12.337 3.214 12.337 C1.828 12.337 0.775 12.3 0 12.282 L0.148 11.838 L1.607 11.358 C1.681 11.119 1.718 9.05 1.718 5.947 L1.718 0.979 L0.11 0.647 L0.239 0.241 Z" transform="translate(416.851, 316.905)"/>
  </g>
 </g>
</svg>
