<?xml version="1.0" encoding="UTF-8"?>
<svg width="595.28pt" version="1.1" xmlns="http://www.w3.org/2000/svg" height="841.89pt" viewBox="0 0 595.28 841.89" xmlns:xlink="http://www.w3.org/1999/xlink">
 <defs>
  <clipPath id="Clip0">
   <path d="M0 0 L0 85 L514.859 85 L514.859 0 L0 0 Z" transform="translate(38.75, 89)"/>
  </clipPath>
 </defs>
 <g id="Background">
  <g id="Group1" clip-path="url(#Clip0)">
   <path style="fill:#161413; fill-rule:nonzero;stroke:none;" d="M0 0 L8.899 0 L8.899 26.0889 C8.852 27.8125 9.365 29.0704 11.321 29.0704 C13.045 29.0704 13.744 28.0459 13.744 26.0889 L13.744 0 L22.642 0 L22.642 25.251 C22.642 31.167 19.66 35.7325 11.275 35.7325 C4.333 35.7325 0 32.4249 0 25.251 L0 0 Z" transform="translate(149.655, 114.106)"/>
   <path style="fill:#161413; fill-rule:nonzero;stroke:none;" d="M7.408 0.8389 L7.594 3.169 L7.733 3.169 C8.479 2.0967 10.482 0 13.883 0 C18.216 0 20.452 3.1211 20.452 6.8955 C20.452 9.7373 20.452 26.8819 20.452 26.8819 L12.019 26.8819 C12.019 26.8819 12.019 10.0635 12.019 8.6661 C12.066 7.2676 11.181 6.5694 10.249 6.5694 C9.411 6.5694 8.386 7.2676 8.386 8.5723 L8.386 26.8819 L0 26.8819 L0 0.8389 L7.408 0.8389 Z" transform="translate(177.235, 122.119)"/>
   <path style="fill:#161413; fill-rule:nonzero;stroke:none;" d="M0 8.8515 L8.573 8.8515 L8.573 34.9414 L0 34.9414 L0 8.8515 Z M0 0 L8.573 0 L8.573 6.289 L0 6.289 L0 0 Z" transform="translate(202.671, 114.06)"/>
   <path style="fill:#161413; fill-rule:nonzero;stroke:none;" d="M0 12.9981 L0 7.5479 L2.422 7.5479 L2.422 0 L10.948 0 L10.948 7.5479 L14.535 7.5479 L14.535 12.9981 L10.948 12.9981 L10.948 26.2754 C10.948 27.7666 11.88 28.5586 13.277 28.5586 C13.836 28.6055 14.535 28.5586 14.535 28.5586 L14.535 34.0098 C14.535 34.0098 10.575 34.0098 9.736 34.0098 C5.124 34.0098 2.422 31.4932 2.422 27.3008 L2.422 12.9981 L0 12.9981 Z" transform="translate(214.411, 115.178)"/>
   <path style="fill:#161413; fill-rule:nonzero;stroke:none;" d="M11.507 10.3897 L11.507 7.3614 C11.507 6.2901 10.622 5.5909 9.69 5.5909 C8.618 5.5909 7.873 6.3829 7.873 7.4082 C7.873 7.7344 7.873 9.085 7.873 10.3897 L11.507 10.3897 Z M19.287 17.8897 L19.287 18.8223 C19.194 24.086 16.212 27.6739 9.69 27.6739 C3.68 27.6739 0 24.6455 0 18.7286 L0 8.9454 C0 3.0284 3.68 0 9.69 0 C16.305 0 19.334 3.587 19.334 8.9454 L19.334 15.6075 L7.873 15.6075 L7.873 20.2657 C7.873 21.2442 8.618 22.083 9.69 22.083 C10.622 22.083 11.507 21.3379 11.507 20.2657 L11.507 17.8897 L19.287 17.8897 Z" transform="translate(231.555, 122.119)"/>
   <path style="fill:#161413; fill-rule:nonzero;stroke:none;" d="M8.153 28.0449 C8.153 29.4433 8.992 30.0488 9.97 30.0488 C10.809 30.0488 11.834 29.4433 11.834 28.1386 L11.834 15.5605 C11.834 14.209 10.809 13.6504 9.97 13.6504 C9.038 13.6504 8.153 14.2549 8.153 15.6064 C8.2 17.0039 8.153 28.0449 8.153 28.0449 Z M19.986 0 L19.986 34.9404 L12.765 34.9404 L12.626 32.8906 L12.439 32.8906 C12.02 33.5898 10.343 35.7324 6.616 35.7324 C2.33 35.7324 0 32.7509 0 28.3711 L0 15.3271 C0 10.9013 2.656 8.0595 6.476 8.0595 C9.551 8.0595 11.135 9.457 11.694 9.8759 L11.74 9.8759 L11.74 0 L19.986 0 Z" transform="translate(255.453, 114.014)"/>
   <path style="fill:#161413; fill-rule:nonzero;stroke:none;" d="M0 0 L21.244 0 L21.244 6.9883 L15.141 6.9883 L15.141 34.8935 L5.87 34.8935 L5.87 6.9883 L0 6.9883 L0 0 Z" transform="translate(289.974, 114.014)"/>
   <path style="fill:#161413; fill-rule:nonzero;stroke:none;" d="M11.507 10.3897 L11.507 7.3614 C11.507 6.2901 10.622 5.5909 9.69 5.5909 C8.619 5.5909 7.873 6.3829 7.873 7.4082 C7.873 7.7344 7.873 9.085 7.873 10.3897 L11.507 10.3897 Z M19.287 17.8897 L19.287 18.8223 C19.194 24.086 16.212 27.6739 9.69 27.6739 C3.68 27.6739 0 24.6455 0 18.7286 L0 8.9454 C0 3.0284 3.68 0 9.69 0 C16.306 0 19.334 3.587 19.334 8.9454 L19.334 15.6075 L7.873 15.6075 L7.873 20.2657 C7.873 21.2442 8.619 22.083 9.69 22.083 C10.622 22.083 11.507 21.3379 11.507 20.2657 L11.507 17.8897 L19.287 17.8897 Z" transform="translate(309.727, 122.119)"/>
   <path style="fill:#161413; fill-rule:nonzero;stroke:none;" d="M20.313 16.8184 L20.313 18.7286 C20.313 24.086 16.772 27.6739 10.156 27.6739 C4.147 27.6739 0 24.6455 0 18.7286 L0 8.9454 C0 3.0284 4.147 0 10.156 0 C16.772 0 20.313 3.587 20.313 8.9454 L20.313 10.5762 L11.88 10.5762 L11.88 7.4551 C11.88 6.3829 11.088 5.7305 10.156 5.7305 C9.085 5.7305 8.386 6.4766 8.386 7.4551 C8.386 8.7588 8.386 20.2198 8.386 20.2198 C8.386 21.1983 9.085 21.9434 10.156 21.9434 C11.088 21.9434 11.88 21.2911 11.88 20.2198 L11.88 16.8184 L20.313 16.8184 Z" transform="translate(333.579, 122.119)"/>
   <path style="fill:#161413; fill-rule:nonzero;stroke:none;" d="M8.386 0 L8.386 10.3886 L8.432 10.3886 C9.318 9.4101 11.228 8.0127 13.883 8.0127 C18.495 8.0127 20.406 11.1806 20.406 14.9541 C20.452 17.7959 20.406 34.8476 20.406 34.8476 L12.02 34.8476 C12.02 34.8476 12.02 18.0293 12.02 16.6308 C12.02 15.2802 11.181 14.582 10.249 14.582 C9.411 14.582 8.386 15.2343 8.386 16.5381 C8.386 17.5625 8.386 34.8476 8.386 34.8476 L0 34.8476 L0 0 L8.386 0 Z" transform="translate(358.177, 114.014)"/>
   <path style="fill:#161413; fill-rule:nonzero;stroke:none;" d="M7.408 0.8389 L7.594 3.169 L7.733 3.169 C8.479 2.0967 10.482 0 13.883 0 C18.216 0 20.452 3.1211 20.452 6.8955 C20.452 9.7373 20.452 26.8819 20.452 26.8819 L12.019 26.8819 C12.019 26.8819 12.019 10.0635 12.019 8.6661 C12.066 7.2676 11.181 6.5694 10.249 6.5694 C9.41 6.5694 8.386 7.2676 8.386 8.5723 L8.386 26.8819 L0 26.8819 L0 0.8389 L7.408 0.8389 Z" transform="translate(383.8, 122.119)"/>
   <path style="fill:#161413; fill-rule:nonzero;stroke:none;" d="M8.153 20.2198 C8.153 21.1983 8.991 22.0362 10.063 21.9903 C10.995 21.9903 11.973 21.2911 11.973 20.2198 C11.973 20.2198 11.973 9.1778 11.973 7.4551 C11.973 6.3829 10.995 5.6368 10.063 5.6368 C8.991 5.6368 8.153 6.4297 8.153 7.4082 C8.153 8.7129 8.153 20.2198 8.153 20.2198 Z M0 8.9454 C0 3.0284 4.052 0 10.063 0 C16.678 0 20.173 3.587 20.173 8.9454 L20.173 18.7286 C20.173 24.086 16.725 27.6739 10.063 27.6739 C4.099 27.6739 0 24.6924 0 18.7754 L0 8.9454 Z" transform="translate(408.678, 122.119)"/>
   <path style="fill:#161413; fill-rule:nonzero;stroke:none;" d="M0 0 L8.618 0 L8.618 34.8935 L0 34.8935 L0 0 Z" transform="translate(433.416, 114.014)"/>
   <path style="fill:#161413; fill-rule:nonzero;stroke:none;" d="M8.154 20.2198 C8.154 21.1983 8.992 22.0362 10.064 21.9903 C10.996 21.9903 11.974 21.2911 11.974 20.2198 C11.974 20.2198 11.974 9.1778 11.974 7.4551 C11.974 6.3829 10.996 5.6368 10.064 5.6368 C8.992 5.6368 8.154 6.4297 8.154 7.4082 C8.154 8.7129 8.154 20.2198 8.154 20.2198 Z M0 8.9454 C0 3.0284 4.053 0 10.064 0 C16.679 0 20.173 3.587 20.173 8.9454 L20.173 18.7286 C20.173 24.086 16.726 27.6739 10.064 27.6739 C4.1 27.6739 0 24.6924 0 18.7754 L0 8.9454 Z" transform="translate(446.692, 122.119)"/>
   <path style="fill:#161413; fill-rule:nonzero;stroke:none;" d="M8.107 18.8213 C8.107 20.1719 8.947 20.7784 9.877 20.7784 C10.716 20.7784 11.695 20.1719 11.695 18.8682 L11.695 7.5928 C11.695 6.2891 10.716 5.6827 9.877 5.6827 C8.899 5.6827 8.107 6.2891 8.107 7.6866 C8.107 7.6866 8.107 17.4239 8.107 18.8213 Z M8.154 27.6729 L8.154 28.1856 C8.154 29.1641 8.853 29.9092 9.877 29.9092 C10.809 29.9092 11.648 29.2569 11.648 28.1856 L11.648 23.9463 L11.601 23.9463 C10.669 24.7383 8.992 25.67 6.43 25.67 C2.33 25.67 0 22.9678 0 18.6348 C0 15.8389 0 7.2207 0 7.2207 C0 3.0743 2.283 0 6.523 0 C10.343 0 11.88 2.2364 12.346 2.795 L12.532 2.795 L12.672 0.7911 L19.8 0.7911 L19.8 26.5079 C19.8 31.8194 17.238 35.3604 9.877 35.3604 C3.541 35.3604 0.094 32.5645 0 27.6729 L8.154 27.6729 Z" transform="translate(471.616, 122.073)"/>
   <path style="fill:#161413; fill-rule:nonzero;stroke:none;" d="M0 8.8515 L8.572 8.8515 L8.572 34.9414 L0 34.9414 L0 8.8515 Z M0 0 L8.572 0 L8.572 6.289 L0 6.289 L0 0 Z" transform="translate(496.727, 114.06)"/>
   <path style="fill:#161413; fill-rule:nonzero;stroke:none;" d="M11.507 10.3897 L11.507 7.3614 C11.507 6.2901 10.622 5.5909 9.69 5.5909 C8.619 5.5909 7.874 6.3829 7.874 7.4082 C7.874 7.7344 7.874 9.085 7.874 10.3897 L11.507 10.3897 Z M19.288 17.8897 L19.288 18.8223 C19.194 24.086 16.212 27.6739 9.69 27.6739 C3.68 27.6739 0 24.6455 0 18.7286 L0 8.9454 C0 3.0284 3.68 0 9.69 0 C16.305 0 19.334 3.587 19.334 8.9454 L19.334 15.6075 L7.874 15.6075 L7.874 20.2657 C7.874 21.2442 8.619 22.083 9.69 22.083 C10.622 22.083 11.507 21.3379 11.507 20.2657 L11.507 17.8897 L19.288 17.8897 Z" transform="translate(510.144, 122.119)"/>
   <path style="fill:#161413; fill-rule:nonzero;stroke:none;" d="M19.939 9.1778 L16.119 9.1778 L12.299 9.1778 C12.299 9.1778 12.299 8.8516 12.299 8.5254 C12.299 8.1534 12.299 7.7803 12.299 7.5938 C12.299 7.0352 12.112 6.4766 11.786 6.0567 C11.414 5.6368 10.854 5.3584 10.109 5.3584 C9.364 5.3584 8.804 5.5909 8.478 5.917 C8.152 6.2432 8.013 6.6622 8.013 7.0821 C8.013 8.0606 8.712 8.8057 9.83 9.5039 C10.948 10.1563 12.392 10.8086 13.836 11.5079 C15.7 12.3926 17.424 13.2774 18.681 14.4424 C19.939 15.6543 20.684 17.1914 20.684 19.3809 C20.684 22.1299 19.566 24.2256 17.703 25.6241 C15.793 26.9747 13.184 27.6739 10.156 27.6739 C6.894 27.6739 4.332 26.835 2.655 25.3438 C0.931 23.8067 0 21.6172 0 18.8682 L0 18.3555 L0 17.8897 L3.866 17.8897 L7.733 17.8897 C7.733 17.8897 7.733 18.3096 7.733 18.7754 C7.733 19.2881 7.733 19.7998 7.733 19.9864 C7.733 20.5918 7.92 21.1983 8.292 21.6172 C8.712 22.0362 9.317 22.3164 10.156 22.3164 C10.854 22.3164 11.414 22.083 11.786 21.71 C12.159 21.3379 12.392 20.8252 12.392 20.2198 C12.392 19.3809 11.972 18.6817 11.18 18.0303 C10.343 17.378 9.084 16.7715 7.407 16.0733 C5.078 15.1875 3.354 14.209 2.236 12.9053 C1.071 11.6475 0.466 10.0166 0.466 7.8272 C0.466 5.125 1.63 3.169 3.447 1.8633 C5.218 0.6065 7.64 0 10.202 0 C12.858 0 15.327 0.6065 17.097 1.9571 C18.868 3.3077 19.939 5.4043 19.939 8.4795 L19.939 8.8516 L19.939 9.1778 Z" transform="translate(532.925, 122.119)"/>
   <path style="fill:#161413; fill-rule:nonzero;stroke:none;" d="M58.2529 81.9297 L55.4697 71.957 L55.8145 71.8242 L61.2725 80.583 C63.9551 79.377 66.5986 77.6689 68.7412 75.873 L63.7529 67.8418 L64.0381 67.6035 L71.1338 73.8428 C73.5049 71.8232 75.6807 69.2695 77.293 66.833 L70.793 61.042 L70.9932 60.7324 L78.9277 64.3203 C80.6797 61.5986 82.1367 58.415 83.002 55.2764 L75.8066 51.9414 L75.8975 51.584 L83.7705 52.5176 C84.6191 49.3789 84.9961 45.9531 84.96 42.498 L58.9395 42.498 C58.9092 51.4893 51.6104 58.7715 42.6133 58.7715 C33.5957 58.7715 26.2852 51.46 26.2852 42.4443 C26.2852 34.1855 32.416 27.3604 40.375 26.2686 L33.7549 0.949219 C32.3477 1.18164 30.585 1.64063 29.2842 2.14648 L35.8389 25.8525 L35.4775 25.9902 L23.3057 4.62793 C21.8447 5.27441 20.209 6.25293 18.9775 7.16016 L31.0176 27.0693 L30.7236 27.3018 L14.1846 10.8789 C12.9609 11.8828 11.5322 13.2949 10.5791 14.5234 L26.5488 29.7393 L26.3076 30.0283 L7.16602 18.9756 C6.12695 20.3438 5.08496 22.2227 4.4043 23.7705 L22.6943 33.8408 L22.5566 34.1914 L2.39063 28.5928 C1.73047 30.2891 1.1377 32.4746 0.855469 34.2773 L20.0518 38.9717 L19.9844 39.3525 L0.173828 39.3633 C0.111328 40.3164 0 41.5215 0 42.4902 C0 43.4355 0.104492 44.5742 0.166016 45.502 L18.8086 45.3457 L18.8447 45.7041 L0.760742 50.2129 C1.09277 52.3555 1.64063 54.4766 2.40527 56.4434 L19.2109 51.833 L19.3555 52.1748 L4.11133 60.6143 C5.02148 62.6416 6.15527 64.6035 7.45605 66.4434 L21.2861 58.4443 L21.5146 58.7344 L10.0615 69.8662 C11.4961 71.6611 13.1602 73.3164 14.9609 74.792 L25.2598 64.6055 L25.5605 64.8213 L18.1992 77.2959 C20.1377 78.7119 22.2148 79.9336 24.46 80.9287 L31.1113 69.5234 L31.459 69.6621 L28.0117 82.4043 C30.2764 83.3008 32.7314 83.9346 35.29 84.334 L38.502 72.5508 L38.8682 72.6094 L38.9473 84.7959 C40.125 84.8945 41.3076 85 42.5107 85 C43.9521 85 45.376 84.874 46.7803 84.7324 L46.7861 73.4287 L47.1523 73.377 L50.2422 84.2441 C53.1377 83.7861 55.8896 82.9492 58.2383 81.9365 Z M44.8154 0.107422 C44.1104 0.0400391 43.2266 0 42.5293 0 C41.9004 0 41.0264 0.0302734 40.4189 0.0957031 L40.6523 26.2344 C41.2949 26.1563 41.9492 26.1152 42.6133 26.1152 C43.2813 26.1152 43.9404 26.1563 44.5889 26.2354 L44.8154 0.107422 Z M45.0547 26.2979 C46.3223 26.4883 47.543 26.8242 48.6973 27.2881 L55.7686 2.15723 C54.5938 1.70605 52.9766 1.26074 51.7217 1.04883 L45.0547 26.2979 Z M49.3145 27.5508 C50.4199 28.0498 51.46 28.668 52.418 29.3867 L65.8926 7.05957 C64.9189 6.35938 63.5166 5.48926 62.4082 4.98926 L49.3145 27.5508 Z M74.375 14.4473 C73.6934 13.6143 72.6348 12.4697 71.7813 11.752 L53.1768 29.9961 C54.0098 30.7021 54.7725 31.4922 55.4482 32.3525 L74.375 14.4473 Z M56.4053 33.7012 C56.8516 34.4053 57.2451 35.1445 57.5811 35.9141 L80.4629 23.46 C80.1143 22.6465 79.4795 21.4727 78.9717 20.7432 L56.4053 33.7012 Z M58.7373 39.8623 C58.6094 39.0615 58.4238 38.2793 58.1846 37.5215 L83.4102 31.0889 C83.6777 31.8506 83.9473 33.0488 84.0762 33.835 L58.7373 39.8623 Z" transform="translate(38.75, 89)"/>
  </g>
 </g>
</svg>
