<?xml version="1.0" encoding="UTF-8" standalone="no"?>
<!-- Created with Inkscape (http://www.inkscape.org/) -->

<svg
   xmlns:dc="http://purl.org/dc/elements/1.1/"
   xmlns:cc="http://creativecommons.org/ns#"
   xmlns:rdf="http://www.w3.org/1999/02/22-rdf-syntax-ns#"
   xmlns:svg="http://www.w3.org/2000/svg"
   xmlns="http://www.w3.org/2000/svg"
   xmlns:sodipodi="http://sodipodi.sourceforge.net/DTD/sodipodi-0.dtd"
   xmlns:inkscape="http://www.inkscape.org/namespaces/inkscape"
   version="1.2"
   width="891"
   height="675"
   id="svg4679"
   inkscape:version="0.48.5 r10040"
   sodipodi:docname="2015FrontRobotSign.svg"
   inkscape:export-filename="C:\MARKETINGRepo\Robot Stickers\2015FrontRobotSign.png"
   inkscape:export-xdpi="90"
   inkscape:export-ydpi="90">
  <sodipodi:namedview
     pagecolor="#ffffff"
     bordercolor="#666666"
     borderopacity="1"
     objecttolerance="10"
     gridtolerance="10"
     guidetolerance="10"
     inkscape:pageopacity="0"
     inkscape:pageshadow="2"
     inkscape:window-width="1440"
     inkscape:window-height="838"
     id="namedview4759"
     showgrid="false"
     inkscape:zoom="0.92"
     inkscape:cx="445.5"
     inkscape:cy="228.07351"
     inkscape:window-x="-8"
     inkscape:window-y="-8"
     inkscape:window-maximized="1"
     inkscape:current-layer="g3950"
     inkscape:document-units="in"
     units="in" />
  <defs
     id="defs4681">
    <clipPath
       id="SVGID_16_">
      <rect
         id="use4471"
         y="124.382"
         x="5983.1138"
         height="341.375"
         width="986.06201" />
    </clipPath>
    <clipPath
       id="clipPath4699">
      <rect
         id="use4701"
         y="124.382"
         x="5983.1138"
         height="341.375"
         width="986.06201" />
    </clipPath>
    <clipPath
       id="clipPath4703">
      <rect
         id="use4705"
         y="124.382"
         x="5983.1138"
         height="341.375"
         width="986.06201" />
    </clipPath>
    <clipPath
       id="clipPath4707">
      <rect
         id="use4709"
         y="124.382"
         x="5983.1138"
         height="341.375"
         width="986.06201" />
    </clipPath>
    <clipPath
       id="clipPath4711">
      <rect
         id="use4713"
         y="124.382"
         x="5983.1138"
         height="341.375"
         width="986.06201" />
    </clipPath>
    <clipPath
       id="clipPath4715">
      <rect
         id="use4717"
         y="124.382"
         x="5983.1138"
         height="341.375"
         width="986.06201" />
    </clipPath>
    <clipPath
       id="clipPath4719">
      <rect
         id="use4721"
         y="124.382"
         x="5983.1138"
         height="341.375"
         width="986.06201" />
    </clipPath>
    <clipPath
       id="clipPath4723">
      <rect
         id="use4725"
         y="124.382"
         x="5983.1138"
         height="341.375"
         width="986.06201" />
    </clipPath>
    <clipPath
       id="clipPath4727">
      <rect
         id="use4729"
         y="124.382"
         x="5983.1138"
         height="341.375"
         width="986.06201" />
    </clipPath>
    <clipPath
       id="clipPath4731">
      <rect
         id="use4733"
         y="124.382"
         x="5983.1138"
         height="341.375"
         width="986.06201" />
    </clipPath>
    <clipPath
       id="clipPath4735">
      <rect
         id="use4737"
         y="124.382"
         x="5983.1138"
         height="341.375"
         width="986.06201" />
    </clipPath>
    <clipPath
       id="clipPath4739">
      <rect
         id="use4741"
         y="124.382"
         x="5983.1138"
         height="341.375"
         width="986.06201" />
    </clipPath>
    <clipPath
       id="clipPath4743">
      <rect
         id="use4745"
         y="124.382"
         x="5983.1138"
         height="341.375"
         width="986.06201" />
    </clipPath>
    <clipPath
       id="clipPath4747">
      <rect
         id="use4749"
         y="124.382"
         x="5983.1138"
         height="341.375"
         width="986.06201" />
    </clipPath>
    <clipPath
       id="clipPath4751">
      <rect
         id="use4753"
         y="124.382"
         x="5983.1138"
         height="341.375"
         width="986.06201" />
    </clipPath>
    <clipPath
       id="clipPath4755">
      <rect
         id="use4757"
         y="124.382"
         x="5983.1138"
         height="341.375"
         width="986.06201" />
    </clipPath>
    <clipPath
       id="clipPath4759">
      <rect
         id="use4761"
         y="124.382"
         x="5983.1138"
         height="341.375"
         width="986.06201" />
    </clipPath>
    <clipPath
       id="clipPath4763">
      <rect
         id="use4765"
         y="124.382"
         x="5983.1138"
         height="341.375"
         width="986.06201" />
    </clipPath>
    <clipPath
       id="clipPath4767">
      <rect
         id="use4769"
         y="124.382"
         x="5983.1138"
         height="341.375"
         width="986.06201" />
    </clipPath>
    <clipPath
       id="clipPath4771">
      <rect
         id="use4773"
         y="124.382"
         x="5983.1138"
         height="341.375"
         width="986.06201" />
    </clipPath>
    <clipPath
       id="SVGID_2_">
      <rect
         id="use3837"
         y="-2248"
         x="1860.283"
         height="6343.749"
         width="4104.7788" />
    </clipPath>
    <clipPath
       id="clipPath4949">
      <rect
         id="use4951"
         y="-2248"
         x="1860.283"
         height="6343.749"
         width="4104.7788" />
    </clipPath>
    <clipPath
       id="SVGID_6_">
      <rect
         id="use3853"
         y="-2248"
         x="1860.283"
         height="6343.749"
         width="4104.7788" />
    </clipPath>
    <clipPath
       id="clipPath4955">
      <rect
         id="use4957"
         y="-2248"
         x="1860.283"
         height="6343.749"
         width="4104.7788" />
    </clipPath>
    <clipPath
       id="clipPath4959">
      <rect
         id="use4961"
         y="-2248"
         x="1860.283"
         height="6343.749"
         width="4104.7788" />
    </clipPath>
    <clipPath
       id="clipPath4963">
      <rect
         id="use4965"
         y="-2248"
         x="1860.283"
         height="6343.749"
         width="4104.7788" />
    </clipPath>
    <clipPath
       id="clipPath4967">
      <rect
         id="use4969"
         y="-2248"
         x="1860.283"
         height="6343.749"
         width="4104.7788" />
    </clipPath>
    <clipPath
       id="clipPath4971">
      <rect
         id="use4973"
         y="-2248"
         x="1860.283"
         height="6343.749"
         width="4104.7788" />
    </clipPath>
    <clipPath
       id="clipPath4975">
      <rect
         id="use4977"
         y="-2248"
         x="1860.283"
         height="6343.749"
         width="4104.7788" />
    </clipPath>
    <clipPath
       id="clipPath4979">
      <rect
         id="use4981"
         y="-2248"
         x="1860.283"
         height="6343.749"
         width="4104.7788" />
    </clipPath>
    <clipPath
       id="clipPath4983">
      <rect
         id="use4985"
         y="-2248"
         x="1860.283"
         height="6343.749"
         width="4104.7788" />
    </clipPath>
    <clipPath
       id="clipPath4987">
      <rect
         id="use4989"
         y="-2248"
         x="1860.283"
         height="6343.749"
         width="4104.7788" />
    </clipPath>
    <clipPath
       id="clipPath4991">
      <rect
         id="use4993"
         y="-2248"
         x="1860.283"
         height="6343.749"
         width="4104.7788" />
    </clipPath>
    <clipPath
       id="clipPath4995">
      <rect
         id="use4997"
         y="-2248"
         x="1860.283"
         height="6343.749"
         width="4104.7788" />
    </clipPath>
    <clipPath
       id="clipPath4999">
      <rect
         id="use5001"
         y="-2248"
         x="1860.283"
         height="6343.749"
         width="4104.7788" />
    </clipPath>
    <clipPath
       id="clipPath5003">
      <rect
         id="use5005"
         y="-2248"
         x="1860.283"
         height="6343.749"
         width="4104.7788" />
    </clipPath>
    <clipPath
       id="clipPath5007">
      <rect
         id="use5009"
         y="-2248"
         x="1860.283"
         height="6343.749"
         width="4104.7788" />
    </clipPath>
    <clipPath
       id="clipPath5011">
      <rect
         id="use5013"
         y="-2248"
         x="1860.283"
         height="6343.749"
         width="4104.7788" />
    </clipPath>
    <clipPath
       id="clipPath5015">
      <rect
         id="use5017"
         y="-2248"
         x="1860.283"
         height="6343.749"
         width="4104.7788" />
    </clipPath>
    <clipPath
       id="clipPath5019">
      <rect
         id="use5021"
         y="-2248"
         x="1860.283"
         height="6343.749"
         width="4104.7788" />
    </clipPath>
    <clipPath
       id="clipPath5023">
      <rect
         id="use5025"
         y="-2248"
         x="1860.283"
         height="6343.749"
         width="4104.7788" />
    </clipPath>
    <clipPath
       id="clipPath5027">
      <rect
         id="use5029"
         y="-2248"
         x="1860.283"
         height="6343.749"
         width="4104.7788" />
    </clipPath>
    <clipPath
       id="clipPath5031">
      <rect
         id="use5033"
         y="-2248"
         x="1860.283"
         height="6343.749"
         width="4104.7788" />
    </clipPath>
    <clipPath
       id="clipPath5035">
      <rect
         id="use5037"
         y="-2248"
         x="1860.283"
         height="6343.749"
         width="4104.7788" />
    </clipPath>
    <clipPath
       id="clipPath5039">
      <rect
         id="use5041"
         y="-2248"
         x="1860.283"
         height="6343.749"
         width="4104.7788" />
    </clipPath>
    <clipPath
       id="clipPath5043">
      <rect
         id="use5045"
         y="-2248"
         x="1860.283"
         height="6343.749"
         width="4104.7788" />
    </clipPath>
    <clipPath
       id="clipPath5047">
      <rect
         id="use5049"
         y="-2248"
         x="1860.283"
         height="6343.749"
         width="4104.7788" />
    </clipPath>
    <clipPath
       id="clipPath5051">
      <rect
         id="use5053"
         y="-2248"
         x="1860.283"
         height="6343.749"
         width="4104.7788" />
    </clipPath>
    <clipPath
       id="clipPath5055">
      <rect
         id="use5057"
         y="-2248"
         x="1860.283"
         height="6343.749"
         width="4104.7788" />
    </clipPath>
    <clipPath
       id="clipPath5059">
      <rect
         id="use5061"
         y="-2248"
         x="1860.283"
         height="6343.749"
         width="4104.7788" />
    </clipPath>
    <clipPath
       id="clipPath5063">
      <rect
         id="use5065"
         y="-2248"
         x="1860.283"
         height="6343.749"
         width="4104.7788" />
    </clipPath>
    <clipPath
       id="clipPath5067">
      <rect
         id="use5069"
         y="-2248"
         x="1860.283"
         height="6343.749"
         width="4104.7788" />
    </clipPath>
    <clipPath
       id="clipPath5071">
      <rect
         id="use5073"
         y="-2248"
         x="1860.283"
         height="6343.749"
         width="4104.7788" />
    </clipPath>
    <clipPath
       id="clipPath5075">
      <rect
         id="use5077"
         y="-2248"
         x="1860.283"
         height="6343.749"
         width="4104.7788" />
    </clipPath>
    <clipPath
       id="clipPath5079">
      <rect
         id="use5081"
         y="-2248"
         x="1860.283"
         height="6343.749"
         width="4104.7788" />
    </clipPath>
    <clipPath
       id="clipPath5083">
      <rect
         id="use5085"
         y="-2248"
         x="1860.283"
         height="6343.749"
         width="4104.7788" />
    </clipPath>
    <clipPath
       id="clipPath5087">
      <rect
         id="use5089"
         y="-2248"
         x="1860.283"
         height="6343.749"
         width="4104.7788" />
    </clipPath>
    <clipPath
       id="clipPath5091">
      <rect
         id="use5093"
         y="-2248"
         x="1860.283"
         height="6343.749"
         width="4104.7788" />
    </clipPath>
    <clipPath
       id="clipPath5095">
      <rect
         id="use5097"
         y="-2248"
         x="1860.283"
         height="6343.749"
         width="4104.7788" />
    </clipPath>
    <clipPath
       id="clipPath5099">
      <rect
         id="use5101"
         y="-2248"
         x="1860.283"
         height="6343.749"
         width="4104.7788" />
    </clipPath>
    <clipPath
       id="clipPath5103">
      <rect
         id="use5105"
         y="-2248"
         x="1860.283"
         height="6343.749"
         width="4104.7788" />
    </clipPath>
    <clipPath
       id="clipPath5107">
      <rect
         id="use5109"
         y="-2248"
         x="1860.283"
         height="6343.749"
         width="4104.7788" />
    </clipPath>
    <clipPath
       id="clipPath5111">
      <rect
         id="use5113"
         y="-2248"
         x="1860.283"
         height="6343.749"
         width="4104.7788" />
    </clipPath>
    <clipPath
       id="clipPath5115">
      <rect
         id="use5117"
         y="-2248"
         x="1860.283"
         height="6343.749"
         width="4104.7788" />
    </clipPath>
    <clipPath
       id="clipPath5119">
      <rect
         id="use5121"
         y="-2248"
         x="1860.283"
         height="6343.749"
         width="4104.7788" />
    </clipPath>
    <clipPath
       id="clipPath5123">
      <rect
         id="use5125"
         y="-2248"
         x="1860.283"
         height="6343.749"
         width="4104.7788" />
    </clipPath>
    <clipPath
       id="clipPath5127">
      <rect
         id="use5129"
         y="-2248"
         x="1860.283"
         height="6343.749"
         width="4104.7788" />
    </clipPath>
    <clipPath
       id="clipPath5131">
      <rect
         id="use5133"
         y="-2248"
         x="1860.283"
         height="6343.749"
         width="4104.7788" />
    </clipPath>
    <clipPath
       id="clipPath5135">
      <rect
         id="use5137"
         y="-2248"
         x="1860.283"
         height="6343.749"
         width="4104.7788" />
    </clipPath>
    <clipPath
       id="clipPath5139">
      <rect
         id="use5141"
         y="-2248"
         x="1860.283"
         height="6343.749"
         width="4104.7788" />
    </clipPath>
    <clipPath
       id="clipPath5143">
      <rect
         id="use5145"
         y="-2248"
         x="1860.283"
         height="6343.749"
         width="4104.7788" />
    </clipPath>
    <clipPath
       id="clipPath5147">
      <rect
         id="use5149"
         y="-2248"
         x="1860.283"
         height="6343.749"
         width="4104.7788" />
    </clipPath>
    <clipPath
       id="clipPath5151">
      <rect
         id="use5153"
         y="-2248"
         x="1860.283"
         height="6343.749"
         width="4104.7788" />
    </clipPath>
    <clipPath
       id="clipPath5155">
      <rect
         id="use5157"
         y="-2248"
         x="1860.283"
         height="6343.749"
         width="4104.7788" />
    </clipPath>
    <clipPath
       id="clipPath5159">
      <rect
         id="use5161"
         y="-2248"
         x="1860.283"
         height="6343.749"
         width="4104.7788" />
    </clipPath>
    <clipPath
       id="clipPath5163">
      <rect
         id="use5165"
         y="-2248"
         x="1860.283"
         height="6343.749"
         width="4104.7788" />
    </clipPath>
    <clipPath
       id="SVGID_8_">
      <rect
         width="4104.7788"
         height="6343.749"
         x="1860.283"
         y="-2248"
         id="use3967" />
    </clipPath>
    <clipPath
       id="clipPath5169">
      <rect
         width="4104.7788"
         height="6343.749"
         x="1860.283"
         y="-2248"
         id="use5171" />
    </clipPath>
    <clipPath
       id="clipPath5173">
      <rect
         width="4104.7788"
         height="6343.749"
         x="1860.283"
         y="-2248"
         id="use5175" />
    </clipPath>
    <clipPath
       id="clipPath5177">
      <rect
         width="4104.7788"
         height="6343.749"
         x="1860.283"
         y="-2248"
         id="use5179" />
    </clipPath>
    <clipPath
       id="clipPath5181">
      <rect
         id="use5183"
         y="-2248"
         x="1860.283"
         height="6343.749"
         width="4104.7788" />
    </clipPath>
    <clipPath
       id="SVGID_10_">
      <rect
         width="4104.7788"
         height="6343.749"
         x="1860.283"
         y="-2248"
         id="use3983" />
    </clipPath>
    <clipPath
       id="clipPath5187">
      <rect
         width="4104.7788"
         height="6343.749"
         x="1860.283"
         y="-2248"
         id="use5189" />
    </clipPath>
    <clipPath
       id="clipPath5191">
      <rect
         width="4104.7788"
         height="6343.749"
         x="1860.283"
         y="-2248"
         id="use5193" />
    </clipPath>
    <clipPath
       id="clipPath5195">
      <rect
         width="4104.7788"
         height="6343.749"
         x="1860.283"
         y="-2248"
         id="use5197" />
    </clipPath>
    <clipPath
       id="clipPath5199">
      <rect
         width="4104.7788"
         height="6343.749"
         x="1860.283"
         y="-2248"
         id="use5201" />
    </clipPath>
    <clipPath
       id="clipPath5203">
      <rect
         width="4104.7788"
         height="6343.749"
         x="1860.283"
         y="-2248"
         id="use5205" />
    </clipPath>
    <clipPath
       id="clipPath5207">
      <rect
         width="4104.7788"
         height="6343.749"
         x="1860.283"
         y="-2248"
         id="use5209" />
    </clipPath>
    <clipPath
       id="clipPath5211">
      <rect
         width="4104.7788"
         height="6343.749"
         x="1860.283"
         y="-2248"
         id="use5213" />
    </clipPath>
    <clipPath
       id="clipPath5215">
      <rect
         width="4104.7788"
         height="6343.749"
         x="1860.283"
         y="-2248"
         id="use5217" />
    </clipPath>
    <clipPath
       id="clipPath5219">
      <rect
         width="4104.7788"
         height="6343.749"
         x="1860.283"
         y="-2248"
         id="use5221" />
    </clipPath>
    <clipPath
       id="clipPath5223">
      <rect
         width="4104.7788"
         height="6343.749"
         x="1860.283"
         y="-2248"
         id="use5225" />
    </clipPath>
    <clipPath
       id="clipPath5227">
      <rect
         width="4104.7788"
         height="6343.749"
         x="1860.283"
         y="-2248"
         id="use5229" />
    </clipPath>
    <clipPath
       id="clipPath5231">
      <rect
         width="4104.7788"
         height="6343.749"
         x="1860.283"
         y="-2248"
         id="use5233" />
    </clipPath>
    <clipPath
       id="clipPath5235">
      <rect
         width="4104.7788"
         height="6343.749"
         x="1860.283"
         y="-2248"
         id="use5237" />
    </clipPath>
    <clipPath
       id="clipPath5239">
      <rect
         width="4104.7788"
         height="6343.749"
         x="1860.283"
         y="-2248"
         id="use5241" />
    </clipPath>
    <clipPath
       id="clipPath5243">
      <rect
         width="4104.7788"
         height="6343.749"
         x="1860.283"
         y="-2248"
         id="use5245" />
    </clipPath>
    <clipPath
       id="clipPath5247">
      <rect
         width="4104.7788"
         height="6343.749"
         x="1860.283"
         y="-2248"
         id="use5249" />
    </clipPath>
    <clipPath
       id="clipPath5251">
      <rect
         width="4104.7788"
         height="6343.749"
         x="1860.283"
         y="-2248"
         id="use5253" />
    </clipPath>
    <clipPath
       id="clipPath5255">
      <rect
         width="4104.7788"
         height="6343.749"
         x="1860.283"
         y="-2248"
         id="use5257" />
    </clipPath>
    <clipPath
       id="clipPath5259">
      <rect
         width="4104.7788"
         height="6343.749"
         x="1860.283"
         y="-2248"
         id="use5261" />
    </clipPath>
    <clipPath
       id="clipPath5263">
      <rect
         width="4104.7788"
         height="6343.749"
         x="1860.283"
         y="-2248"
         id="use5265" />
    </clipPath>
    <clipPath
       id="clipPath5267">
      <rect
         width="4104.7788"
         height="6343.749"
         x="1860.283"
         y="-2248"
         id="use5269" />
    </clipPath>
    <clipPath
       id="clipPath5271">
      <rect
         width="4104.7788"
         height="6343.749"
         x="1860.283"
         y="-2248"
         id="use5273" />
    </clipPath>
    <clipPath
       id="clipPath5275">
      <rect
         width="4104.7788"
         height="6343.749"
         x="1860.283"
         y="-2248"
         id="use5277" />
    </clipPath>
    <clipPath
       id="clipPath5279">
      <rect
         width="4104.7788"
         height="6343.749"
         x="1860.283"
         y="-2248"
         id="use5281" />
    </clipPath>
    <clipPath
       id="clipPath5283">
      <rect
         width="4104.7788"
         height="6343.749"
         x="1860.283"
         y="-2248"
         id="use5285" />
    </clipPath>
    <clipPath
       id="clipPath5287">
      <rect
         width="4104.7788"
         height="6343.749"
         x="1860.283"
         y="-2248"
         id="use5289" />
    </clipPath>
    <clipPath
       id="clipPath5291">
      <rect
         width="4104.7788"
         height="6343.749"
         x="1860.283"
         y="-2248"
         id="use5293" />
    </clipPath>
    <clipPath
       id="clipPath5295">
      <rect
         width="4104.7788"
         height="6343.749"
         x="1860.283"
         y="-2248"
         id="use5297" />
    </clipPath>
    <clipPath
       id="clipPath5299">
      <rect
         width="4104.7788"
         height="6343.749"
         x="1860.283"
         y="-2248"
         id="use5301" />
    </clipPath>
    <clipPath
       id="clipPath5303">
      <rect
         width="4104.7788"
         height="6343.749"
         x="1860.283"
         y="-2248"
         id="use5305" />
    </clipPath>
    <clipPath
       id="clipPath5307">
      <rect
         width="4104.7788"
         height="6343.749"
         x="1860.283"
         y="-2248"
         id="use5309" />
    </clipPath>
    <clipPath
       id="clipPath5311">
      <rect
         width="4104.7788"
         height="6343.749"
         x="1860.283"
         y="-2248"
         id="use5313" />
    </clipPath>
    <clipPath
       id="clipPath5315">
      <rect
         width="4104.7788"
         height="6343.749"
         x="1860.283"
         y="-2248"
         id="use5317" />
    </clipPath>
    <clipPath
       id="clipPath5319">
      <rect
         width="4104.7788"
         height="6343.749"
         x="1860.283"
         y="-2248"
         id="use5321" />
    </clipPath>
    <clipPath
       id="clipPath5323">
      <rect
         width="4104.7788"
         height="6343.749"
         x="1860.283"
         y="-2248"
         id="use5325" />
    </clipPath>
    <clipPath
       id="clipPath5327">
      <rect
         width="4104.7788"
         height="6343.749"
         x="1860.283"
         y="-2248"
         id="use5329" />
    </clipPath>
    <clipPath
       id="clipPath5331">
      <rect
         width="4104.7788"
         height="6343.749"
         x="1860.283"
         y="-2248"
         id="use5333" />
    </clipPath>
    <clipPath
       id="clipPath5335">
      <rect
         width="4104.7788"
         height="6343.749"
         x="1860.283"
         y="-2248"
         id="use5337" />
    </clipPath>
    <clipPath
       id="clipPath5339">
      <rect
         width="4104.7788"
         height="6343.749"
         x="1860.283"
         y="-2248"
         id="use5341" />
    </clipPath>
    <clipPath
       id="clipPath5343">
      <rect
         id="use5345"
         y="-2248"
         x="1860.283"
         height="6343.749"
         width="4104.7788" />
    </clipPath>
    <clipPath
       id="SVGID_12_">
      <rect
         width="4104.7788"
         height="6343.749"
         x="1860.283"
         y="-2248"
         id="use4071" />
    </clipPath>
    <clipPath
       id="clipPath5349">
      <rect
         width="4104.7788"
         height="6343.749"
         x="1860.283"
         y="-2248"
         id="use5351" />
    </clipPath>
    <clipPath
       id="clipPath5353">
      <rect
         width="4104.7788"
         height="6343.749"
         x="1860.283"
         y="-2248"
         id="use5355" />
    </clipPath>
    <clipPath
       id="clipPath5357">
      <rect
         width="4104.7788"
         height="6343.749"
         x="1860.283"
         y="-2248"
         id="use5359" />
    </clipPath>
    <clipPath
       id="clipPath5361">
      <rect
         width="4104.7788"
         height="6343.749"
         x="1860.283"
         y="-2248"
         id="use5363" />
    </clipPath>
    <clipPath
       id="clipPath5365">
      <rect
         width="4104.7788"
         height="6343.749"
         x="1860.283"
         y="-2248"
         id="use5367" />
    </clipPath>
    <clipPath
       id="clipPath5369">
      <rect
         width="4104.7788"
         height="6343.749"
         x="1860.283"
         y="-2248"
         id="use5371" />
    </clipPath>
    <clipPath
       id="clipPath5373">
      <rect
         width="4104.7788"
         height="6343.749"
         x="1860.283"
         y="-2248"
         id="use5375" />
    </clipPath>
    <clipPath
       id="clipPath5377">
      <rect
         width="4104.7788"
         height="6343.749"
         x="1860.283"
         y="-2248"
         id="use5379" />
    </clipPath>
    <clipPath
       id="clipPath5381">
      <rect
         width="4104.7788"
         height="6343.749"
         x="1860.283"
         y="-2248"
         id="use5383" />
    </clipPath>
    <clipPath
       id="clipPath5385">
      <rect
         width="4104.7788"
         height="6343.749"
         x="1860.283"
         y="-2248"
         id="use5387" />
    </clipPath>
    <clipPath
       id="clipPath5389">
      <rect
         width="4104.7788"
         height="6343.749"
         x="1860.283"
         y="-2248"
         id="use5391" />
    </clipPath>
    <clipPath
       id="clipPath5393">
      <rect
         id="use5395"
         y="-2248"
         x="1860.283"
         height="6343.749"
         width="4104.7788" />
    </clipPath>
    <clipPath
       id="clipPath5397">
      <rect
         id="use5399"
         y="-2248"
         x="1860.283"
         height="6343.749"
         width="4104.7788" />
    </clipPath>
    <clipPath
       id="SVGID_14_">
      <polygon
         id="use4105"
         points="1860.283,4095.749 1860.283,-2248 5928.607,-2210.5 5928.607,4133.249 " />
    </clipPath>
    <clipPath
       id="clipPath5403">
      <polygon
         id="use5405"
         points="1860.283,4095.749 1860.283,-2248 5928.607,-2210.5 5928.607,4133.249 " />
    </clipPath>
    <clipPath
       id="clipPath5407">
      <polygon
         id="use5409"
         points="1860.283,4095.749 1860.283,-2248 5928.607,-2210.5 5928.607,4133.249 " />
    </clipPath>
    <clipPath
       id="clipPath5411">
      <polygon
         id="use5413"
         points="1860.283,4095.749 1860.283,-2248 5928.607,-2210.5 5928.607,4133.249 " />
    </clipPath>
    <clipPath
       id="clipPath5415">
      <polygon
         id="use5417"
         points="1860.283,4095.749 1860.283,-2248 5928.607,-2210.5 5928.607,4133.249 " />
    </clipPath>
    <clipPath
       id="clipPath5419">
      <polygon
         id="use5421"
         points="1860.283,4095.749 1860.283,-2248 5928.607,-2210.5 5928.607,4133.249 " />
    </clipPath>
    <clipPath
       id="clipPath5423">
      <polygon
         id="use5425"
         points="1860.283,4095.749 1860.283,-2248 5928.607,-2210.5 5928.607,4133.249 " />
    </clipPath>
    <clipPath
       id="clipPath5427">
      <polygon
         id="use5429"
         points="1860.283,4095.749 1860.283,-2248 5928.607,-2210.5 5928.607,4133.249 " />
    </clipPath>
    <clipPath
       id="clipPath5431">
      <polygon
         id="use5433"
         points="1860.283,4095.749 1860.283,-2248 5928.607,-2210.5 5928.607,4133.249 " />
    </clipPath>
    <clipPath
       id="clipPath5435">
      <polygon
         id="use5437"
         points="1860.283,4095.749 1860.283,-2248 5928.607,-2210.5 5928.607,4133.249 " />
    </clipPath>
    <clipPath
       id="clipPath5439">
      <polygon
         id="use5441"
         points="1860.283,4095.749 1860.283,-2248 5928.607,-2210.5 5928.607,4133.249 " />
    </clipPath>
    <clipPath
       id="clipPath5443">
      <polygon
         id="use5445"
         points="1860.283,4095.749 1860.283,-2248 5928.607,-2210.5 5928.607,4133.249 " />
    </clipPath>
    <clipPath
       id="clipPath5447">
      <polygon
         id="use5449"
         points="1860.283,4095.749 1860.283,-2248 5928.607,-2210.5 5928.607,4133.249 " />
    </clipPath>
    <clipPath
       id="clipPath5451">
      <polygon
         id="use5453"
         points="1860.283,4095.749 1860.283,-2248 5928.607,-2210.5 5928.607,4133.249 " />
    </clipPath>
    <clipPath
       id="clipPath5455">
      <polygon
         id="use5457"
         points="1860.283,4095.749 1860.283,-2248 5928.607,-2210.5 5928.607,4133.249 " />
    </clipPath>
    <clipPath
       id="clipPath3667">
      <path
         d="m 537.149,440.958 248.645,0 0,67.261 -248.645,0 0,-67.261 z"
         id="path3669"
         inkscape:connector-curvature="0" />
    </clipPath>
    <clipPath
       id="clipPath3807">
      <path
         d="m 586.042,529.358 172.25,0 0,134.569 -172.25,0 0,-134.569 z"
         id="path3809"
         inkscape:connector-curvature="0" />
    </clipPath>
    <clipPath
       id="clipPath4521">
      <path
         d="m 43.727,1088.702 698.396,0 0,124.298 -698.396,0 0,-124.298 z"
         id="path4523"
         inkscape:connector-curvature="0" />
    </clipPath>
    <clipPath
       id="clipPath4565">
      <path
         d="m 0,368.681 368.681,0 L 368.681,0 0,0 0,368.681 z"
         id="path4567"
         inkscape:connector-curvature="0" />
    </clipPath>
  </defs>
  <metadata
     id="metadata4684">
    <rdf:RDF>
      <cc:Work
         rdf:about="">
        <dc:format>image/svg+xml</dc:format>
        <dc:type
           rdf:resource="http://purl.org/dc/dcmitype/StillImage" />
        <dc:title></dc:title>
      </cc:Work>
    </rdf:RDF>
  </metadata>
  <g
     transform="translate(0,-377.36)"
     id="layer1">
    <g
       transform="matrix(1.3906831,0,0,1.3906831,62.226943,107.41616)"
       id="g4766">
      <g
         transform="matrix(1.25,0,0,-1.25,48.606879,445.61564)"
         id="g4561"
         style="display:inline">
        <g
           clip-path="url(#clipPath4565)"
           id="g4563">
          <g
             transform="translate(107.667,141.124)"
             id="g4569">
            <path
               d="M 0,0 C 0,0 -7.735,-29.504 -4.751,-41.438 -1.333,-55.11 30,-95.776 76,-95.776 c 40.667,0 69.833,43.666 71.333,48 4.914,14.196 2.333,40.864 -2,43.182 5.667,0.318 21.499,20.161 1.667,35.818 -19,15 -39,1.416 -38.5,-4 7.413,2.337 -61.167,12.333 -79,-2.5 C 21,40.03 1.105,38.445 -7.504,29.333 -18,18.224 -20,3.224 0,0"
               id="path4571"
               style="fill:#373535;fill-opacity:1;fill-rule:nonzero;stroke:none"
               inkscape:connector-curvature="0" />
          </g>
          <g
             transform="translate(153.5479,119.3643)"
             id="g4573">
            <path
               d="M 0,0 C 0,0 -12.881,18.292 -16.782,9.479 -24.004,-6.834 0,0 0,0"
               id="path4575"
               style="fill:#ee3338;fill-opacity:1;fill-rule:nonzero;stroke:none"
               inkscape:connector-curvature="0" />
          </g>
          <g
             transform="translate(207.4482,119.3643)"
             id="g4577">
            <path
               d="M 0,0 C 0,0 12.881,18.292 16.783,9.479 24.004,-6.834 0,0 0,0"
               id="path4579"
               style="fill:#ee3338;fill-opacity:1;fill-rule:nonzero;stroke:none"
               inkscape:connector-curvature="0" />
          </g>
          <g
             transform="translate(54.8032,228.979)"
             id="g4581" />
        </g>
      </g>
      <path
         d="m 117.11088,159.39189 c -2.9625,22.50375 -4.07125,49.4125 8.29625,69.42375 4.11625,6.6625 9.8075,8.875 17.24,6.435 6.8825,-2.26 10.79,-8.0575 13.93875,-14.24625 10.25375,-20.15125 12.2725,-43.33125 14.44375,-65.42875 1.36875,-13.9325 1.06875,-27.4075 0.395,-41.37875 -0.6775,-14.02875 -1.085,-28.517495 3.61125,-41.954995 0.625,-1.79 -8.67,-0.7325 -9.52375,1.7125 -7.44625,21.3 -1.24375,47.374995 5.65125,67.986245 3.29125,9.83875 7.45,21.38125 15.26375,28.55875 7.0375,6.4625 19.10625,3.5475 25.98,-1.615 10.71125,-8.04375 13.40375,-20.92125 14.78625,-33.55 1.8225,-16.65 1.79125,-33.405 0.385,-50.074995 -1.4325,-16.985 -3.6925,-33.8725 -3.3075,-50.955 0.30875,-13.74375 3.5,-27.2712501 0,-40.8337501 -0.58,-2.2425 -9.3575,0.365 -9.66,2.5875 -4.39125,32.2562501 4.3975,64.4862501 12.36625,95.4837501 3.75375,14.599995 6.14,29.199995 8.3175,44.104995 2.1,14.37 4.62125,28.8975 10.9825,42.07875 0.82375,1.705 5.34125,0.22125 6.495,-0.21875 20.05875,-7.63875 24.7675,-34.88875 28.115,-53.41 1.865,-10.325 3.08,-20.7675 3.98875,-31.214995 0.60125,-6.91 -0.45625,-12.85875 -2.4025,-19.50375 -2.07625,-7.0825 -4.91375,-14.8375 -1.60375,-21.97 -3.1975,0.7175 -6.395,1.43375 -9.5925,2.15 5.80375,20.75 8.835,42.43 5.77375,63.878745 -1.17375,8.2175 -2.4125,16.42 -2.7425,24.725 -0.2525,6.34375 -0.29625,14.5825 4.7475,19.2425 1.78375,1.64875 8.21625,-0.68625 9.31375,-2.49625 4.3575,-7.1875 13.005,-12.765 15.8325,-20.83375 -3.19625,0.7175 -6.39375,1.43375 -9.59125,2.15125 3.275,9.25 0.0675,20.84625 -1.13875,30.235 -0.99875,7.785 -3.4225,19.82875 3.0825,25.94375 1.85125,1.73875 7.37,-0.8125 8.92125,-2.01375 14.71375,-11.39 18.14875,-32.13 20.5675,-49.42 2.655,-18.9675 1.9175,-39.45625 8.15875,-57.728745 -3.19625,0.71625 -6.39375,1.43375 -9.59125,2.15 2.01,6.28 1.45375,13.194995 0.93125,19.663745 -0.7575,9.38125 -2.2325,18.7 -3.3275,28.045 -1.6875,14.41 -5.0075,35.10625 6.0075,46.80375 1.6975,1.80125 7.4725,-0.87375 8.92125,-2.01375 13.825,-10.8625 19.97,-29.625 22.39,-46.4 3.36625,-23.3375 -7.1175,-46.468745 -12.76375,-68.686245 -3.21875,0.8625 -6.43875,1.725 -9.65875,2.5875 15.59875,22.7875 18.53125,51.036245 20.55125,77.857495 0.98375,13.06 1.77875,26.1025 3.375,39.105 1.2825,10.44125 2.18125,22.4575 11.35125,29.21625 2.065,1.52125 7.27625,-0.58875 8.92125,-2.01375 13.30125,-11.525 15.4875,-29.1925 25.3925,-42.9825 -3.19625,0.7175 -6.39375,1.43375 -9.59125,2.15125 4.43875,15.3125 5.8925,31.22875 7.365,47.04375 1.35,14.50875 1.81625,30.575 7.05125,44.32625 2.67875,7.03875 11.6,5.46625 15.8775,0.54625 6.08375,-6.99625 8.02625,-18.67375 10.13125,-27.4 -3.19625,0.71625 -6.39375,1.43375 -9.59125,2.15 9.42375,33.35125 4.2075,69.99125 -10.58125,100.9925 -13.0525,27.35875 -32.11125,53.98125 -58.38875,69.8125 -16.34375,9.845 -35.8225,16.0475 -54.575,19.04625 -19.33875,3.0925 -39.2675,0.1375 -58.01375,-4.90125 -35.2175,-9.46375 -65.53375,-29.23375 -87.92125,-57.94625 -21.8425,-28.0125 -34.54,-59.81875 -38.1025,-95.0725 -1.86375,-18.4425 -2.5225,-37.0025 -1.37,-55.5075 0.62125,-9.96375 1.6975,-19.89625 2.67625,-29.83 0.45375,-4.61125 0.87625,-9.22375 1.2575,-13.84125 0.40375,-4.87375 0,-10.1725 1.27625,-14.9025 0.54,-2 -8.87375,-0.69375 -9.52375,1.7125 -1.93375,7.1675 -1.34625,15.33625 -2.0125,22.72125 -0.89625,9.94125 -1.99,19.86125 -2.82125,29.80875 -1.575,18.84625 -1.13125,37.52125 0.3225,56.3575 1.27375,16.5125 3.91875,32.83 9.26875,48.54125 5.60125,16.4475 14.51125,31.7775 24.455,45.95375 19.58125,27.91625 45.87625,48.37375 77.865,60.28125 34.13875,12.70875 69.27125,15.14375 104.32375,4.76625 19.47125,-5.76375 38.315,-14.055 54.32875,-26.6725 14.54625,-11.46125 25.7475,-26.605 35.3825,-42.25875 22.25,-36.15375 33.63625,-79.8025 21.8125,-121.64875 -0.59625,-2.10875 -9.14125,0.28875 -9.59125,2.15 -1.93125,8.005 -4.03125,16.16625 -7.67375,23.58875 -0.59625,1.21625 -1.30375,2.42375 -2.195,3.44875 5.1175,0.35375 6.70375,-0.15625 4.7575,-1.5275 -0.82375,-0.675 -1.295,-2.025 -1.715,-2.9575 -2.2325,-4.9425 -2.8675,-10.7975 -3.78125,-16.095 -4.32,-25.00625 -3.5225,-50.7375 -10.635,-75.275 -0.735,-2.5375 -8.62125,0.80125 -9.59125,2.15 -9.63625,13.415 -11.6925,30.82875 -24.60625,42.01875 2.97375,-0.67125 5.94625,-1.3425 8.92,-2.01375 -9.2425,-6.81375 -9.7,-19.6175 -10.98375,-30.0575 -1.615,-13.14375 -2.3425,-26.35625 -3.3375,-39.55625 -1.97,-26.17 -5.2075,-53.678745 -20.40125,-75.873745 -1.2925,-1.89 -10.22125,0.37625 -9.65875,2.5875 5.26,20.705 14.70625,42.091245 13.28125,63.788745 -1.14,17.34875 -7.8475,38.34875 -21.98625,49.45875 2.97375,-0.67125 5.94625,-1.3425 8.92,-2.01375 -10.61875,-11.27625 -7.015,-32.32125 -5.45125,-46.11375 1.01,-8.90375 2.35125,-17.7675 3.205,-26.68875 0.65875,-6.85875 1.32625,-14.347495 -0.81,-21.018745 -0.7025,-2.1975 -8.98,0.36 -9.59125,2.15 -5.825,17.054995 -5.575,36.192495 -7.69125,53.929995 -2.11375,17.71 -5.095,40.525 -20.24875,52.255 2.97375,-0.67125 5.94625,-1.3425 8.92,-2.01375 -6.345,-5.965 -3.28875,-19.31 -2.3325,-26.7675 1.1525,-8.97125 4.0725,-19.88375 0.94375,-28.72125 -0.77875,-2.20125 -8.96,0.34875 -9.59125,2.15 -2.83875,8.1 -11.45125,13.60625 -15.8325,20.83375 3.105,-0.83125 6.20875,-1.66375 9.31375,-2.495 -4.71,-4.35375 -4.32875,-12.71125 -4.1925,-18.55125 0.19375,-8.2875 1.55625,-16.5375 2.7425,-24.72625 3.10375,-21.426245 0.0238,-43.151245 -5.7725,-63.877495 -0.64625,-2.31 -8.8325,0.515 -9.59125,2.15 -5.41,11.65625 3.5575,24.5775 4.255,36.415 0.53375,9.0625 -1.62125,19.106245 -2.9075,28.041245 -1.6625,11.5625 -4.0175,23.09375 -7.74625,34.1775 -2.5775,7.66 -7.12125,20.40875 -15.50375,23.60125 2.165,-0.0737 4.32875,-0.14625 6.49375,-0.21875 -6.37,-13.1975 -8.84125,-27.70125 -10.98375,-42.07875 -2.22,-14.9025 -4.565,-29.4975 -8.31625,-44.104995 -7.9625,-31.0025 -16.75875,-63.2225 -12.36625,-95.4825001 -3.22,0.8625 -6.44,1.72625 -9.66,2.5875 2.80125,10.85375 1.23625,21.1287501 0.33875,32.1025001 -1.16375,14.20875 -0.01,28.5525 1.34125,42.7025 1.38875,14.54125 2.97875,29.045 2.6975,43.676245 -0.26375,13.80125 -0.8375,28.42875 -5.2275,41.595 -1.8025,5.405 -5.9475,11.27125 -11.04375,14.0025 -4.38125,2.3475 -10.9475,-6.95125 -12.4675,-9.475 -5.1925,-8.6275 -8.64875,-18.34375 -11.53,-27.945 -5.55,-18.49 -10.2575,-41.668745 -3.68375,-60.474995 -3.175,0.57 -6.35,1.14125 -9.52375,1.7125 -7.63625,21.8475 -2.6625,45.709995 -2.88125,68.273745 -0.12875,13.13875 -2.0925,26.61125 -3.83875,39.62 -1.28125,9.54625 -3.47125,18.81625 -6.5025,27.94375 -2.29125,6.89875 -5.07125,13.865 -9.33375,19.8 -0.82,1.14125 -1.80875,2.12 -2.85875,3.04375 -1.47375,0.90875 -0.8325,0.83375 1.92125,-0.2225 -0.93,-0.13375 -1.705,-0.68 -2.46875,-1.17625 -3.895,-2.525 -6.27375,-7.70375 -8.18375,-11.7575 -8.73625,-18.54625 -7.1975,-42.90375 -4.595,-62.675 0.15125,-1.15125 -9.275,-0.33125 -9.66,2.5875"
         id="path4583"
         style="fill:#ee3338;fill-opacity:1;fill-rule:nonzero;stroke:none;display:inline"
         inkscape:connector-curvature="0" />
    </g>
    <g
       transform="translate(-795.04855,59.34783)"
       id="g3950">
      <rect
         width="875.28131"
         height="506.55786"
         x="802.9079"
         y="483.32788"
         id="rect3941"
         style="fill:#ffffff;fill-opacity:1;stroke:#ff0000;stroke-width:3.38866282;stroke-miterlimit:4;stroke-opacity:1;stroke-dasharray:none" />
      <text
         x="933.21259"
         y="843.95941"
         transform="scale(0.94443582,1.0588332)"
         id="text3927"
         xml:space="preserve"
         style="font-size:364.09341431px;font-style:normal;font-variant:normal;font-weight:bold;font-stretch:normal;text-align:start;line-height:100%;letter-spacing:0px;word-spacing:0px;writing-mode:lr-tb;text-anchor:start;fill:#000000;fill-opacity:1;stroke:none;font-family:Impact;-inkscape-font-specification:Impact Bold"
         sodipodi:linespacing="100%"><tspan
           x="933.21259"
           y="843.95941"
           id="tspan3929">2846</tspan></text>
    </g>
  </g>
</svg>
